<?xml version="1.0" encoding="UTF-8" standalone="no"?>
<!-- Created with Inkscape (http://www.inkscape.org/) -->

<svg
   width="76.458313mm"
   height="58.796783mm"
   viewBox="0 0 76.458313 58.796783"
   version="1.1"
   id="svg1"
   xml:space="preserve"
   xmlns="http://www.w3.org/2000/svg"
   xmlns:svg="http://www.w3.org/2000/svg"><defs
     id="defs1" /><g
     id="layer1"
     transform="translate(-39.784371,-210.55964)"><g
       id="g2"><g
         id="g20"
         style="stroke:#000000;stroke-opacity:1"><g
           id="g19"
           style="stroke:#000000;stroke-opacity:1"><g
             id="g18"
             style="stroke:#000000;stroke-opacity:1"><path
               style="opacity:1;fill:none;fill-opacity:0.61;stroke:#000000;stroke-width:0.6;stroke-linecap:round;stroke-linejoin:round;stroke-dasharray:none;stroke-opacity:1"
               d="m 51.066073,247.26412 -0.530657,-1.46621 8.334375,-2.77813 7.672916,21.29896 -7.805208,2.91042 -7.672916,-19.97604 -10.980209,4.7625"
               id="path2" /><path
               style="opacity:1;fill:none;fill-opacity:0.61;stroke:#000000;stroke-width:0.600001;stroke-linecap:round;stroke-linejoin:round;stroke-dasharray:none;stroke-opacity:1"
               d="m 47.757291,269.08125 10.054167,-4.36563 v 0 z"
               id="path15" /><path
               style="opacity:1;fill:none;fill-opacity:0.61;stroke:#000000;stroke-width:0.600001;stroke-linecap:round;stroke-linejoin:round;stroke-dasharray:none;stroke-opacity:1"
               d="m 65.087499,260.08541 c 1.683496,-0.74478 4.349404,-2.01838 4.745961,-2.03399 11.344371,2.11188 13.724774,0.20168 14.518523,0.0969 1.990862,-0.49223 2.877886,-0.81651 4.990283,-1.99572 7.507052,-4.7973 14.700124,-8.15297 20.937854,-15.03975 1.74178,-2.61495 4.18353,-4.79222 5.47509,-7.70079 0.42009,-1.13166 0.1141,-2.81216 -0.76068,-3.42306 -1.17161,-0.84623 -1.75874,0.65486 -2.55003,2.2298 -3.76061,7.24032 -12.774283,8.51573 -18.252837,13.04989 l -1.322917,1.05833 c -4.024355,0.33015 -8.107963,0.5892 -12.567708,0.39688 3.288523,-0.49728 6.58616,-0.96721 9.789583,-1.71979 2.770963,-1.0535 5.245376,-3.24817 4.28667,-4.49127 -0.626109,-0.98133 -1.349796,-1.04321 -2.831461,-1.06498 L 80.830893,239.662 c -2.502342,-1.36183 -2.915929,-1.36673 -3.845415,-1.48745 -2.827955,-0.15651 -3.698049,0.0138 -5.41569,0.61185 -1.348607,0.47751 -2.393612,1.45379 -3.307289,2.64583 l -7.9375,4.7625"
               id="path16" /></g><path
             style="opacity:1;fill:none;fill-opacity:0.61;stroke:#000000;stroke-width:0.600001;stroke-linecap:round;stroke-linejoin:round;stroke-dasharray:none;stroke-opacity:1"
             d="m 93.476351,239.62975 c 6.276316,-3.23289 9.955889,-4.30101 14.994749,-10.46828 0.16718,-0.19698 0.62069,-1.66325 1.76697,-1.57186 0.16791,0.15769 1.42362,0.26632 0.20086,2.57861 1.01582,-0.36755 0.60095,-3.18969 2.87186,-2.66566 0.47356,0.11493 1.57468,1.3058 0.17181,2.84699"
             id="path17" /></g><path
           style="opacity:1;fill:none;fill-opacity:0.61;stroke:#000000;stroke-width:0.600001;stroke-linecap:round;stroke-linejoin:round;stroke-dasharray:none;stroke-opacity:1"
           d="m 94.549894,241.59486 c 3.971068,-3.33684 11.554986,-3.71861 15.939016,-11.40154"
           id="path18" /></g><text
         xml:space="preserve"
         style="font-size:11.0111px;font-family:Asap;-inkscape-font-specification:'Asap, Normal';fill:#00c0a8;fill-opacity:1;stroke:none;stroke-width:1.33768;stroke-linecap:round;stroke-linejoin:round;stroke-dasharray:none;stroke-opacity:1"
         x="2.781543"
         y="241.39917"
         id="text20"
         transform="rotate(-15.494915)"><tspan
           id="tspan20"
           style="font-weight:bold;stroke-width:1.33768"
           x="2.781543"
           y="241.39917">Example</tspan></text><rect
         style="opacity:1;fill:none;fill-opacity:1;stroke:#00c0a8;stroke-width:1.36297;stroke-linecap:round;stroke-linejoin:round;stroke-dasharray:2.72594, 1.36297;stroke-dashoffset:0;stroke-opacity:1"
         id="rect25"
         width="44.378811"
         height="12.986643"
         x="3.7408335"
         y="231.3401"
         ry="1.0886009"
         transform="rotate(-15.002821)" /></g></g></svg>
