<?xml version="1.0" encoding="UTF-8" standalone="no"?>
<!-- Created with Inkscape (http://www.inkscape.org/) -->

<svg
   width="110.5917mm"
   height="93.668182mm"
   viewBox="0 0 110.5917 93.668182"
   version="1.1"
   id="svg1"
   xml:space="preserve"
   xmlns:xlink="http://www.w3.org/1999/xlink"
   xmlns="http://www.w3.org/2000/svg"
   xmlns:svg="http://www.w3.org/2000/svg"><defs
     id="defs1"><symbol
       id="Telephone"><title
         id="title2">Telephone</title><g
         style="stroke:none"
         id="g2"><path
           d="m 23,36 c 0,24 11,30 13,30 V 49 c -3,0 -3,-8 -3,-13 0,-5 0,-13 3,-13 V 6 C 33,6 23,12 23,36 Z"
           id="path2-5" /><path
           id="ear1"
           d="m 42,23 a 2,2 0 0 0 2,-2 V 8 A 2,2 0 0 0 42,6 h -4 v 17 z" /><use
           y="43"
           xlink:href="#ear1"
           id="use2" /></g></symbol><symbol
       id="grass"
       viewBox="0 0 375.46152 341.32416"><title
         id="title5">Grass</title><path
         d="M 287.43291,3.6911081e-4 A 5.8277736,5.8277736 0 0 0 281.66924,5.8870931 l -0.32812,83.3984399 a 5.8277736,5.8277736 0 1 0 11.65429,0.0449 L 293.32354,5.9319931 A 5.8277736,5.8277736 0 0 0 287.43291,3.4921081e-4 Z M 242.17901,27.148813 a 5.8277736,5.8277736 0 0 0 -5.38086,8.08398 l 22.74414,56.36914 a 5.8277736,5.8277736 0 1 0 10.80859,-4.36132 l -22.74609,-56.36719 a 5.8277736,5.8277736 0 0 0 -5.42578,-3.72461 z m 94.63867,2.31445 a 5.8277736,5.8277736 0 0 0 -5.49805,3.3418 l -26.37109,54.06055 a 5.8277736,5.8277736 0 1 0 10.47461,5.10937 l 26.37109,-54.06055 a 5.8277736,5.8277736 0 0 0 -4.97656,-8.45117 z m 32.58399,20.99805 a 5.8277736,5.8277736 0 0 0 -3.98633,1.80469 l -32.30469,32.96289 a 5.8277736,5.8277736 0 1 0 8.32422,8.1582 l 32.30273,-32.96484 a 5.8277736,5.8277736 0 0 0 -4.33593,-9.96094 z m -163.57813,0.98633 a 5.8277736,5.8277736 0 0 0 -4.05859,10.00586 l 31.97461,31.97461 a 5.8277736,5.8277736 0 1 0 8.24023,-8.24024 l -31.97461,-31.97461 a 5.8277736,5.8277736 0 0 0 -4.18164,-1.76562 z M 87.43291,96.000373 a 5.8277736,5.8277736 0 0 0 -5.76367,5.886717 l -0.32812,83.39844 a 5.8277736,5.8277736 0 1 0 11.65429,0.0449 l 0.32813,-83.39844 a 5.8277736,5.8277736 0 0 0 -5.89063,-5.931637 z m -45.2539,27.148437 a 5.8277736,5.8277736 0 0 0 -5.38086,8.08398 l 22.74414,56.36914 a 5.8277736,5.8277736 0 1 0 10.80859,-4.36132 L 47.60479,126.87342 a 5.8277736,5.8277736 0 0 0 -5.42578,-3.72461 z m 94.63867,2.31445 a 5.8277736,5.8277736 0 0 0 -5.49805,3.3418 l -26.37109,54.06055 a 5.8277736,5.8277736 0 1 0 10.47461,5.10937 l 26.37109,-54.06055 a 5.8277736,5.8277736 0 0 0 -4.97656,-8.45117 z m 32.58399,20.99805 a 5.8277736,5.8277736 0 0 0 -3.98633,1.80469 l -32.30469,32.96289 a 5.8277736,5.8277736 0 1 0 8.32422,8.1582 l 32.30273,-32.96484 a 5.8277736,5.8277736 0 0 0 -4.33593,-9.96094 z M 5.823539,147.44764 a 5.8277736,5.8277736 0 0 0 -4.05859,10.00586 l 31.97461,31.97461 a 5.8277736,5.8277736 0 1 0 8.24023,-8.24024 l -31.97461,-31.97461 a 5.8277736,5.8277736 0 0 0 -4.18164,-1.76562 z m 185.609371,98.55273 a 5.8277736,5.8277736 0 0 0 -5.76367,5.88672 l -0.32812,83.39844 a 5.8277736,5.8277736 0 1 0 11.65429,0.0449 l 0.32813,-83.39844 a 5.8277736,5.8277736 0 0 0 -5.89063,-5.93164 z m -45.2539,27.14844 a 5.8277736,5.8277736 0 0 0 -5.38086,8.08398 l 22.74414,56.36914 a 5.8277736,5.8277736 0 1 0 10.80859,-4.36132 l -22.74609,-56.36719 a 5.8277736,5.8277736 0 0 0 -5.42578,-3.72461 z m 94.63867,2.31445 a 5.8277736,5.8277736 0 0 0 -5.49805,3.3418 l -26.37109,54.06055 a 5.8277736,5.8277736 0 1 0 10.47461,5.10937 l 26.37109,-54.06055 a 5.8277736,5.8277736 0 0 0 -4.97656,-8.45117 z m 32.58399,20.99805 a 5.8277736,5.8277736 0 0 0 -3.98633,1.80469 l -32.30469,32.96289 a 5.8277736,5.8277736 0 1 0 8.32422,8.1582 l 32.30273,-32.96484 a 5.8277736,5.8277736 0 0 0 -4.33593,-9.96094 z m -163.57813,0.98633 a 5.8277736,5.8277736 0 0 0 -4.05859,10.00586 l 31.97461,31.97461 a 5.8277736,5.8277736 0 1 0 8.24023,-8.24024 l -31.97461,-31.97461 a 5.8277736,5.8277736 0 0 0 -4.18164,-1.76562 z"
         id="path5-1" /></symbol></defs><g
     id="layer1"
     style="display:inline"
     transform="translate(-299.24015,-130.5524)"><rect
       style="opacity:0.997167;fill:none;fill-opacity:0.98452;stroke:#000000;stroke-width:0.235715;stroke-linejoin:round;stroke-dasharray:none;stroke-opacity:1;paint-order:stroke fill markers"
       id="rect23"
       width="110.35599"
       height="93.432472"
       x="299.358"
       y="130.67026"
       ry="7.4616218" /><path
       style="opacity:1;fill:#000000;fill-opacity:0.98452;stroke:#000000;stroke-width:0.264999;stroke-linejoin:round;stroke-dasharray:none;stroke-opacity:1;paint-order:stroke fill markers"
       d="m 303.52626,162.93261 c 103.9691,0 103.9691,0 103.9691,0 z"
       id="path26" /><rect
       style="opacity:1;fill:none;fill-opacity:0.98452;stroke:#000000;stroke-width:0.264999;stroke-linejoin:round;stroke-dasharray:none;stroke-opacity:1;paint-order:stroke fill markers"
       id="rect27"
       width="19.730736"
       height="24.190424"
       x="304.81219"
       y="135.11481"
       ry="4.7299709" /><path
       style="opacity:1;fill:#000000;fill-opacity:0.98452;stroke:#000000;stroke-width:0.21583;stroke-linejoin:round;stroke-dasharray:none;stroke-dashoffset:0.086332;stroke-opacity:1;paint-order:stroke fill markers"
       d="m 354.90266,165.18833 c 0,56.48748 0,56.48748 0,56.48748 z"
       id="path28" /><text
       xml:space="preserve"
       style="font-style:normal;font-variant:normal;font-weight:normal;font-stretch:normal;font-size:4.23333px;line-height:1.55;font-family:Asap;-inkscape-font-specification:'Asap, Normal';font-variant-ligatures:normal;font-variant-caps:normal;font-variant-numeric:normal;font-variant-east-asian:normal;opacity:1;fill:#0a1200;fill-opacity:1;stroke:#000000;stroke-width:0.264999;stroke-linejoin:round;stroke-dasharray:none;stroke-opacity:1;paint-order:stroke fill markers"
       x="318.05612"
       y="169.30574"
       id="text30"><tspan
         id="tspan30"
         style="font-style:normal;font-variant:normal;font-weight:normal;font-stretch:normal;font-size:4.23333px;font-family:Asap;-inkscape-font-specification:'Asap, Normal';font-variant-ligatures:normal;font-variant-caps:normal;font-variant-numeric:normal;font-variant-east-asian:normal;stroke-width:0.265"
         x="318.05612"
         y="169.30574">Initial status</tspan></text><text
       xml:space="preserve"
       style="font-style:normal;font-variant:normal;font-weight:normal;font-stretch:normal;font-size:4.23333px;line-height:1.55;font-family:Asap;-inkscape-font-specification:'Asap, Normal';font-variant-ligatures:normal;font-variant-caps:normal;font-variant-numeric:normal;font-variant-east-asian:normal;opacity:1;fill:#0a1200;fill-opacity:1;stroke:#000000;stroke-width:0.264999;stroke-linejoin:round;stroke-dasharray:none;stroke-opacity:1;paint-order:stroke fill markers"
       x="369.71457"
       y="169.17059"
       id="text33"><tspan
         id="tspan33"
         style="font-style:normal;font-variant:normal;font-weight:normal;font-stretch:normal;font-size:4.23333px;font-family:Asap;-inkscape-font-specification:'Asap, Normal';font-variant-ligatures:normal;font-variant-caps:normal;font-variant-numeric:normal;font-variant-east-asian:normal;stroke-width:0.265"
         x="369.71457"
         y="169.17059">Current status</tspan></text><path
       d="m 306.84534,200.77826 c 0,-1.32798 1.08522,-2.40439 2.42372,-2.40439 1.33865,0 2.42372,1.07641 2.42372,2.40439 0,1.32797 -1.08507,2.40439 -2.42372,2.40439 -1.3385,0 -2.42372,-1.07642 -2.42372,-2.40439 z"
       stroke="#000000"
       stroke-width="0.201169"
       stroke-miterlimit="8"
       fill="none"
       fill-rule="evenodd"
       id="path45" /><path
       d="m 319.56987,200.77826 c 0,-1.32798 1.05128,-2.40439 2.34797,-2.40439 1.29669,0 2.34798,1.07641 2.34798,2.40439 0,1.32797 -1.05129,2.40439 -2.34798,2.40439 -1.29669,0 -2.34797,-1.07642 -2.34797,-2.40439 z"
       stroke="#000000"
       stroke-width="0.201169"
       stroke-miterlimit="8"
       fill="#ffffff"
       fill-rule="evenodd"
       id="path65" /><path
       d="m 313.2076,200.77826 c 0,-1.32798 1.05129,-2.40439 2.34798,-2.40439 1.29669,0 2.34798,1.07641 2.34798,2.40439 0,1.32797 -1.05129,2.40439 -2.34798,2.40439 -1.29669,0 -2.34798,-1.07642 -2.34798,-2.40439 z"
       stroke="#000000"
       stroke-width="0.201169"
       stroke-miterlimit="8"
       fill="#ffffff"
       fill-rule="evenodd"
       id="path66" /><path
       d="m 325.78065,200.92853 c 0,-1.32797 1.08522,-2.40439 2.42371,-2.40439 1.33865,0 2.42372,1.07642 2.42372,2.40439 0,1.32798 -1.08507,2.40439 -2.42372,2.40439 -1.33849,0 -2.42371,-1.07641 -2.42371,-2.40439 z"
       stroke="#000000"
       stroke-width="0.201169"
       stroke-miterlimit="8"
       fill="#ffffff"
       fill-rule="evenodd"
       id="path83" /><path
       d="m 306.84534,206.56382 c 0,-1.28635 1.08522,-2.32925 2.42372,-2.32925 1.33865,0 2.42372,1.0429 2.42372,2.32925 0,1.28635 -1.08507,2.32926 -2.42372,2.32926 -1.3385,0 -2.42372,-1.04291 -2.42372,-2.32926 z"
       stroke="#000000"
       stroke-width="0.201169"
       stroke-miterlimit="8"
       fill="none"
       fill-rule="evenodd"
       id="path84" /><path
       d="m 319.56987,206.56382 c 0,-1.28635 1.05128,-2.32925 2.34797,-2.32925 1.29669,0 2.34798,1.0429 2.34798,2.32925 0,1.28635 -1.05129,2.32926 -2.34798,2.32926 -1.29669,0 -2.34797,-1.04291 -2.34797,-2.32926 z"
       stroke="#000000"
       stroke-width="0.201169"
       stroke-miterlimit="8"
       fill="none"
       fill-rule="evenodd"
       id="path85" /><path
       d="m 313.2076,206.56382 c 0,-1.28635 1.05129,-2.32925 2.34798,-2.32925 1.29669,0 2.34798,1.0429 2.34798,2.32925 0,1.28635 -1.05129,2.32926 -2.34798,2.32926 -1.29669,0 -2.34798,-1.04291 -2.34798,-2.32926 z"
       stroke="#000000"
       stroke-width="0.201169"
       stroke-miterlimit="8"
       fill="none"
       fill-rule="evenodd"
       id="path86" /><path
       d="m 325.78065,206.63896 c 0,-1.32798 1.08522,-2.40439 2.42371,-2.40439 1.33865,0 2.42372,1.07641 2.42372,2.40439 0,1.32797 -1.08507,2.40439 -2.42372,2.40439 -1.33849,0 -2.42371,-1.07642 -2.42371,-2.40439 z"
       stroke="#000000"
       stroke-width="0.201169"
       stroke-miterlimit="8"
       fill="#ffffff"
       fill-rule="evenodd"
       id="path87" /><path
       d="m 306.84534,212.34939 c 0,-1.32783 1.08522,-2.40439 2.42372,-2.40439 1.33865,0 2.42372,1.07656 2.42372,2.40439 0,1.32797 -1.08507,2.40439 -2.42372,2.40439 -1.3385,0 -2.42372,-1.07642 -2.42372,-2.40439 z"
       stroke="#000000"
       stroke-width="0.201169"
       stroke-miterlimit="8"
       fill="#ef9cda"
       fill-rule="evenodd"
       id="path88"
       style="fill:none" /><path
       d="m 319.56987,212.34939 c 0,-1.32783 1.05128,-2.40439 2.34797,-2.40439 1.29669,0 2.34798,1.07656 2.34798,2.40439 0,1.32797 -1.05129,2.40439 -2.34798,2.40439 -1.29669,0 -2.34797,-1.07642 -2.34797,-2.40439 z"
       stroke="#000000"
       stroke-width="0.201169"
       stroke-miterlimit="8"
       fill="#ffffff"
       fill-rule="evenodd"
       id="path89" /><path
       d="m 313.2076,212.34939 c 0,-1.32783 1.05129,-2.40439 2.34798,-2.40439 1.29669,0 2.34798,1.07656 2.34798,2.40439 0,1.32797 -1.05129,2.40439 -2.34798,2.40439 -1.29669,0 -2.34798,-1.07642 -2.34798,-2.40439 z"
       stroke="#000000"
       stroke-width="0.201169"
       stroke-miterlimit="8"
       fill="#ffffff"
       fill-rule="evenodd"
       id="path90" /><path
       d="m 325.78065,212.34939 c 0,-1.32783 1.08522,-2.40439 2.42371,-2.40439 1.33865,0 2.42372,1.07656 2.42372,2.40439 0,1.32797 -1.08507,2.40439 -2.42372,2.40439 -1.33849,0 -2.42371,-1.07642 -2.42371,-2.40439 z"
       stroke="#000000"
       stroke-width="0.201169"
       stroke-miterlimit="8"
       fill="#ffffff"
       fill-rule="evenodd"
       id="path91" /><path
       d="m 306.84534,218.51064 c 0,-1.32783 1.08522,-2.40439 2.42372,-2.40439 1.33865,0 2.42372,1.07656 2.42372,2.40439 0,1.32797 -1.08507,2.40439 -2.42372,2.40439 -1.3385,0 -2.42372,-1.07642 -2.42372,-2.40439 z"
       stroke="#000000"
       stroke-width="0.201169"
       stroke-miterlimit="8"
       fill="#f4b183"
       fill-rule="evenodd"
       id="path92"
       style="fill:none;fill-opacity:1" /><path
       d="m 319.56987,218.51064 c 0,-1.32783 1.05128,-2.40439 2.34797,-2.40439 1.29669,0 2.34798,1.07656 2.34798,2.40439 0,1.32797 -1.05129,2.40439 -2.34798,2.40439 -1.29669,0 -2.34797,-1.07642 -2.34797,-2.40439 z"
       stroke="#000000"
       stroke-width="0.201169"
       stroke-miterlimit="8"
       fill="#f4b183"
       fill-rule="evenodd"
       id="path93"
       style="fill:none;fill-opacity:1" /><path
       d="m 313.2076,218.51064 c 0,-1.32783 1.05129,-2.40439 2.34798,-2.40439 1.29669,0 2.34798,1.07656 2.34798,2.40439 0,1.32797 -1.05129,2.40439 -2.34798,2.40439 -1.29669,0 -2.34798,-1.07642 -2.34798,-2.40439 z"
       stroke="#000000"
       stroke-width="0.201169"
       stroke-miterlimit="8"
       fill="#f4b183"
       fill-rule="evenodd"
       id="path94"
       style="fill:none;fill-opacity:1" /><path
       d="m 325.78065,218.51064 c 0,-1.32783 1.08522,-2.40439 2.42371,-2.40439 1.33865,0 2.42372,1.07656 2.42372,2.40439 0,1.32797 -1.08507,2.40439 -2.42372,2.40439 -1.33849,0 -2.42371,-1.07642 -2.42371,-2.40439 z"
       stroke="#000000"
       stroke-width="0.201169"
       stroke-miterlimit="8"
       fill="#ffffff"
       fill-rule="evenodd"
       id="path95" /><text
       font-family="Calibri, Calibri_MSFontService, sans-serif"
       font-weight="700"
       font-size="19px"
       id="text103"
       x="331.49097"
       y="208.07703"
       style="font-style:normal;font-variant:normal;font-weight:600;font-stretch:normal;font-size:3.175px;font-family:Asap;-inkscape-font-specification:'Asap, Semi-Bold';font-variant-ligatures:normal;font-variant-caps:normal;font-variant-numeric:normal;font-variant-east-asian:normal;stroke-width:0.150877"
       transform="scale(1.0040113,0.99600476)">Storage</text><text
       font-family="Calibri, Calibri_MSFontService, sans-serif"
       font-weight="700"
       font-size="19px"
       id="text104"
       x="331.48279"
       y="219.84712"
       style="font-style:normal;font-variant:normal;font-weight:600;font-stretch:normal;font-size:3.175px;font-family:Asap;-inkscape-font-specification:'Asap, Semi-Bold';font-variant-ligatures:normal;font-variant-caps:normal;font-variant-numeric:normal;font-variant-east-asian:normal;stroke-width:0.150877"
       transform="scale(1.0040113,0.99600476)">Structure</text><text
       font-family="Calibri, Calibri_MSFontService, sans-serif"
       font-weight="700"
       font-size="19px"
       id="text108"
       x="331.51547"
       y="202.23802"
       style="font-style:normal;font-variant:normal;font-weight:600;font-stretch:normal;font-size:3.175px;font-family:Asap;-inkscape-font-specification:'Asap, Semi-Bold';font-variant-ligatures:normal;font-variant-caps:normal;font-variant-numeric:normal;font-variant-east-asian:normal;stroke-width:0.150877"
       transform="scale(1.0040113,0.99600476)">Metadata</text><text
       font-family="Calibri, Calibri_MSFontService, sans-serif"
       font-weight="700"
       font-size="19px"
       id="text111"
       x="331.43521"
       y="213.87352"
       style="font-style:normal;font-variant:normal;font-weight:600;font-stretch:normal;font-size:3.175px;font-family:Asap;-inkscape-font-specification:'Asap, Semi-Bold';font-variant-ligatures:normal;font-variant-caps:normal;font-variant-numeric:normal;font-variant-east-asian:normal;stroke-width:0.150877"
       transform="scale(1.0040113,0.99600476)">Standards</text><path
       d="m 363.77749,200.77826 c 0,-1.32797 1.08522,-2.40439 2.42371,-2.40439 1.33866,0 2.42373,1.07642 2.42373,2.40439 0,1.32798 -1.08507,2.40439 -2.42373,2.40439 -1.33849,0 -2.42371,-1.07641 -2.42371,-2.40439 z"
       stroke="#000000"
       stroke-width="0.201169"
       stroke-miterlimit="8"
       fill="none"
       fill-rule="evenodd"
       id="path126"
       style="display:inline;fill:#de6e9f;fill-opacity:1" /><path
       d="m 376.50202,200.77826 c 0,-1.32797 1.05128,-2.40439 2.34796,-2.40439 1.2967,0 2.34799,1.07642 2.34799,2.40439 0,1.32798 -1.05129,2.40439 -2.34799,2.40439 -1.29668,0 -2.34796,-1.07641 -2.34796,-2.40439 z"
       stroke="#000000"
       stroke-width="0.201169"
       stroke-miterlimit="8"
       fill="#ffffff"
       fill-rule="evenodd"
       id="path127"
       style="display:inline;fill:#de6e9f;fill-opacity:1" /><path
       d="m 370.13974,200.77826 c 0,-1.32797 1.05129,-2.40439 2.34799,-2.40439 1.29668,0 2.34796,1.07642 2.34796,2.40439 0,1.32798 -1.05128,2.40439 -2.34796,2.40439 -1.2967,0 -2.34799,-1.07641 -2.34799,-2.40439 z"
       stroke="#000000"
       stroke-width="0.201169"
       stroke-miterlimit="8"
       fill="#ffffff"
       fill-rule="evenodd"
       id="path144"
       style="display:inline;fill:#de6e9f;fill-opacity:1" /><path
       d="m 382.71279,200.92854 c 0,-1.32798 1.08522,-2.4044 2.42372,-2.4044 1.33865,0 2.42372,1.07642 2.42372,2.4044 0,1.32797 -1.08507,2.40439 -2.42372,2.40439 -1.3385,0 -2.42372,-1.07642 -2.42372,-2.40439 z"
       stroke="#000000"
       stroke-width="0.201169"
       stroke-miterlimit="8"
       fill="#ffffff"
       fill-rule="evenodd"
       id="path145"
       style="display:inline;fill:none;fill-opacity:1" /><path
       d="m 363.77749,206.56383 c 0,-1.28635 1.08522,-2.32926 2.42371,-2.32926 1.33866,0 2.42373,1.04291 2.42373,2.32926 0,1.28635 -1.08507,2.32925 -2.42373,2.32925 -1.33849,0 -2.42371,-1.0429 -2.42371,-2.32925 z"
       stroke="#000000"
       stroke-width="0.201169"
       stroke-miterlimit="8"
       fill="none"
       fill-rule="evenodd"
       id="path146"
       style="display:inline;fill:#1a729f;fill-opacity:1" /><path
       d="m 376.50202,206.56383 c 0,-1.28635 1.05128,-2.32926 2.34796,-2.32926 1.2967,0 2.34799,1.04291 2.34799,2.32926 0,1.28635 -1.05129,2.32925 -2.34799,2.32925 -1.29668,0 -2.34796,-1.0429 -2.34796,-2.32925 z"
       stroke="#000000"
       stroke-width="0.201169"
       stroke-miterlimit="8"
       fill="none"
       fill-rule="evenodd"
       id="path147"
       style="display:inline;fill:#1a729f;fill-opacity:1" /><path
       d="m 370.13974,206.56383 c 0,-1.28635 1.05129,-2.32926 2.34799,-2.32926 1.29668,0 2.34796,1.04291 2.34796,2.32926 0,1.28635 -1.05128,2.32925 -2.34796,2.32925 -1.2967,0 -2.34799,-1.0429 -2.34799,-2.32925 z"
       stroke="#000000"
       stroke-width="0.201169"
       stroke-miterlimit="8"
       fill="none"
       fill-rule="evenodd"
       id="path148"
       style="display:inline;fill:#1a729f;fill-opacity:1" /><path
       d="m 382.71279,206.63896 c 0,-1.32797 1.08522,-2.40439 2.42372,-2.40439 1.33865,0 2.42372,1.07642 2.42372,2.40439 0,1.32798 -1.08507,2.40439 -2.42372,2.40439 -1.3385,0 -2.42372,-1.07641 -2.42372,-2.40439 z"
       stroke="#000000"
       stroke-width="0.201169"
       stroke-miterlimit="8"
       fill="#ffffff"
       fill-rule="evenodd"
       id="path149"
       style="display:inline;fill:none;fill-opacity:1" /><path
       d="m 363.77749,212.34939 c 0,-1.32782 1.08522,-2.40439 2.42371,-2.40439 1.33866,0 2.42373,1.07657 2.42373,2.40439 0,1.32798 -1.08507,2.40439 -2.42373,2.40439 -1.33849,0 -2.42371,-1.07641 -2.42371,-2.40439 z"
       stroke="#000000"
       stroke-width="0.201169"
       stroke-miterlimit="8"
       fill="#ef9cda"
       fill-rule="evenodd"
       id="path150"
       style="display:inline;fill:#55c2b4;fill-opacity:1" /><path
       d="m 376.50202,212.34939 c 0,-1.32782 1.05128,-2.40439 2.34796,-2.40439 1.2967,0 2.34799,1.07657 2.34799,2.40439 0,1.32798 -1.05129,2.40439 -2.34799,2.40439 -1.29668,0 -2.34796,-1.07641 -2.34796,-2.40439 z"
       stroke="#000000"
       stroke-width="0.201169"
       stroke-miterlimit="8"
       fill="#ffffff"
       fill-rule="evenodd"
       id="path151"
       style="display:inline;fill:#55c2b4;fill-opacity:1" /><path
       d="m 370.13974,212.34939 c 0,-1.32782 1.05129,-2.40439 2.34799,-2.40439 1.29668,0 2.34796,1.07657 2.34796,2.40439 0,1.32798 -1.05128,2.40439 -2.34796,2.40439 -1.2967,0 -2.34799,-1.07641 -2.34799,-2.40439 z"
       stroke="#000000"
       stroke-width="0.201169"
       stroke-miterlimit="8"
       fill="#ffffff"
       fill-rule="evenodd"
       id="path152"
       style="display:inline;fill:#55c2b4;fill-opacity:1" /><path
       d="m 382.71279,212.34939 c 0,-1.32782 1.08522,-2.40439 2.42372,-2.40439 1.33865,0 2.42372,1.07657 2.42372,2.40439 0,1.32798 -1.08507,2.40439 -2.42372,2.40439 -1.3385,0 -2.42372,-1.07641 -2.42372,-2.40439 z"
       stroke="#000000"
       stroke-width="0.201169"
       stroke-miterlimit="8"
       fill="#ffffff"
       fill-rule="evenodd"
       id="path153"
       style="display:inline;fill:none;fill-opacity:1" /><path
       d="m 363.77749,218.51064 c 0,-1.32782 1.08522,-2.40439 2.42371,-2.40439 1.33866,0 2.42373,1.07657 2.42373,2.40439 0,1.32798 -1.08507,2.40439 -2.42373,2.40439 -1.33849,0 -2.42371,-1.07641 -2.42371,-2.40439 z"
       stroke="#000000"
       stroke-width="0.201169"
       stroke-miterlimit="8"
       fill="#f4b183"
       fill-rule="evenodd"
       id="path154"
       style="display:inline;fill:#f9a98a;fill-opacity:1" /><path
       d="m 376.50202,218.51064 c 0,-1.32782 1.05128,-2.40439 2.34796,-2.40439 1.2967,0 2.34799,1.07657 2.34799,2.40439 0,1.32798 -1.05129,2.40439 -2.34799,2.40439 -1.29668,0 -2.34796,-1.07641 -2.34796,-2.40439 z"
       stroke="#000000"
       stroke-width="0.201169"
       stroke-miterlimit="8"
       fill="#f4b183"
       fill-rule="evenodd"
       id="path155"
       style="display:inline;fill:#f9a98a;fill-opacity:1" /><path
       d="m 370.13974,218.51064 c 0,-1.32782 1.05129,-2.40439 2.34799,-2.40439 1.29668,0 2.34796,1.07657 2.34796,2.40439 0,1.32798 -1.05128,2.40439 -2.34796,2.40439 -1.2967,0 -2.34799,-1.07641 -2.34799,-2.40439 z"
       stroke="#000000"
       stroke-width="0.201169"
       stroke-miterlimit="8"
       fill="#f4b183"
       fill-rule="evenodd"
       id="path156"
       style="display:inline;fill:#f9a98a;fill-opacity:1" /><path
       d="m 382.71279,218.51064 c 0,-1.32782 1.08522,-2.40439 2.42372,-2.40439 1.33865,0 2.42372,1.07657 2.42372,2.40439 0,1.32798 -1.08507,2.40439 -2.42372,2.40439 -1.3385,0 -2.42372,-1.07641 -2.42372,-2.40439 z"
       stroke="#000000"
       stroke-width="0.201169"
       stroke-miterlimit="8"
       fill="#ffffff"
       fill-rule="evenodd"
       id="path157"
       style="display:inline;fill:#f9a98a;fill-opacity:1" /><text
       font-family="Calibri, Calibri_MSFontService, sans-serif"
       font-weight="700"
       font-size="19px"
       id="text164"
       x="388.19568"
       y="208.07703"
       style="font-style:normal;font-variant:normal;font-weight:600;font-stretch:normal;font-size:3.175px;font-family:Asap;-inkscape-font-specification:'Asap, Semi-Bold';font-variant-ligatures:normal;font-variant-caps:normal;font-variant-numeric:normal;font-variant-east-asian:normal;display:inline;stroke-width:0.150877"
       transform="scale(1.0040113,0.99600476)">Storage</text><text
       font-family="Calibri, Calibri_MSFontService, sans-serif"
       font-weight="700"
       font-size="19px"
       id="text165"
       x="388.1875"
       y="219.84714"
       style="font-style:normal;font-variant:normal;font-weight:600;font-stretch:normal;font-size:3.175px;font-family:Asap;-inkscape-font-specification:'Asap, Semi-Bold';font-variant-ligatures:normal;font-variant-caps:normal;font-variant-numeric:normal;font-variant-east-asian:normal;display:inline;stroke-width:0.150877"
       transform="scale(1.0040113,0.99600476)">Structure</text><text
       font-family="Calibri, Calibri_MSFontService, sans-serif"
       font-weight="700"
       font-size="19px"
       id="text166"
       x="388.22015"
       y="202.23802"
       style="font-style:normal;font-variant:normal;font-weight:600;font-stretch:normal;font-size:3.175px;font-family:Asap;-inkscape-font-specification:'Asap, Semi-Bold';font-variant-ligatures:normal;font-variant-caps:normal;font-variant-numeric:normal;font-variant-east-asian:normal;display:inline;stroke-width:0.150877"
       transform="scale(1.0040113,0.99600476)">Metadata</text><text
       font-family="Calibri, Calibri_MSFontService, sans-serif"
       font-weight="700"
       font-size="19px"
       id="text167"
       x="388.13989"
       y="213.87352"
       style="font-style:normal;font-variant:normal;font-weight:600;font-stretch:normal;font-size:3.175px;font-family:Asap;-inkscape-font-specification:'Asap, Semi-Bold';font-variant-ligatures:normal;font-variant-caps:normal;font-variant-numeric:normal;font-variant-east-asian:normal;display:inline;stroke-width:0.150877"
       transform="scale(1.0040113,0.99600476)">Standards</text><text
       font-family="Calibri, Calibri_MSFontService, sans-serif"
       font-weight="700"
       font-size="19px"
       id="text168"
       x="303.43478"
       y="182.24281"
       style="font-style:normal;font-variant:normal;font-weight:600;font-stretch:normal;font-size:3.175px;font-family:Asap;-inkscape-font-specification:'Asap, Semi-Bold';font-variant-ligatures:normal;font-variant-caps:normal;font-variant-numeric:normal;font-variant-east-asian:normal;display:inline;stroke-width:0.150877"
       transform="scale(1.0040113,0.99600476)"><tspan
   style="font-style:normal;font-variant:normal;font-weight:600;font-stretch:normal;font-size:3.175px;font-family:Asap;-inkscape-font-specification:'Asap, Semi-Bold';font-variant-ligatures:normal;font-variant-caps:normal;font-variant-numeric:normal;font-variant-east-asian:normal;stroke-width:0.150877"
   id="tspan201">Storage</tspan>:</text><text
       font-family="Calibri, Calibri_MSFontService, sans-serif"
       font-weight="700"
       font-size="19px"
       id="text169"
       x="303.42661"
       y="192.81252"
       style="font-style:normal;font-variant:normal;font-weight:600;font-stretch:normal;font-size:3.175px;font-family:Asap;-inkscape-font-specification:'Asap, Semi-Bold';font-variant-ligatures:normal;font-variant-caps:normal;font-variant-numeric:normal;font-variant-east-asian:normal;display:inline;stroke-width:0.150877"
       transform="scale(1.0040113,0.99600476)"><tspan
         style="font-style:normal;font-variant:normal;font-weight:600;font-stretch:normal;font-size:3.175px;font-family:Asap;-inkscape-font-specification:'Asap, Semi-Bold';font-variant-ligatures:normal;font-variant-caps:normal;font-variant-numeric:normal;font-variant-east-asian:normal;stroke-width:0.150877"
         id="tspan169"><tspan
   style="font-style:normal;font-variant:normal;font-weight:600;font-stretch:normal;font-size:3.175px;font-family:Asap;-inkscape-font-specification:'Asap, Semi-Bold';font-variant-ligatures:normal;font-variant-caps:normal;font-variant-numeric:normal;font-variant-east-asian:normal;stroke-width:0.150877"
   id="tspan203">Structure</tspan>:</tspan></text><text
       font-family="Calibri, Calibri_MSFontService, sans-serif"
       font-weight="700"
       font-size="19px"
       id="text170"
       x="303.45926"
       y="177.47939"
       style="font-style:normal;font-variant:normal;font-weight:600;font-stretch:normal;font-size:3.175px;font-family:Asap;-inkscape-font-specification:'Asap, Semi-Bold';font-variant-ligatures:normal;font-variant-caps:normal;font-variant-numeric:normal;font-variant-east-asian:normal;display:inline;stroke-width:0.150877"
       transform="scale(1.0040113,0.99600476)"><tspan
         style="font-style:normal;font-variant:normal;font-weight:600;font-stretch:normal;font-size:3.175px;font-family:Asap;-inkscape-font-specification:'Asap, Semi-Bold';font-variant-ligatures:normal;font-variant-caps:normal;font-variant-numeric:normal;font-variant-east-asian:normal;stroke-width:0.150877"
         id="tspan170"><tspan
   style="font-style:normal;font-variant:normal;font-weight:600;font-stretch:normal;font-size:3.175px;font-family:Asap;-inkscape-font-specification:'Asap, Semi-Bold';font-variant-ligatures:normal;font-variant-caps:normal;font-variant-numeric:normal;font-variant-east-asian:normal;stroke-width:0.150877"
   id="tspan200">Metadata</tspan>:</tspan></text><text
       font-family="Calibri, Calibri_MSFontService, sans-serif"
       font-weight="700"
       font-size="19px"
       id="text171"
       x="303.379"
       y="187.72853"
       style="font-style:normal;font-variant:normal;font-weight:600;font-stretch:normal;font-size:3.175px;font-family:Asap;-inkscape-font-specification:'Asap, Semi-Bold';font-variant-ligatures:normal;font-variant-caps:normal;font-variant-numeric:normal;font-variant-east-asian:normal;display:inline;stroke-width:0.150877"
       transform="scale(1.0040113,0.99600476)">Standards:</text><text
       font-family="Calibri, Calibri_MSFontService, sans-serif"
       font-weight="700"
       font-size="19px"
       id="text173"
       x="322.10309"
       y="177.47939"
       style="font-style:normal;font-variant:normal;font-weight:normal;font-stretch:normal;font-size:3.175px;font-family:Asap;-inkscape-font-specification:'Asap, Normal';font-variant-ligatures:normal;font-variant-caps:normal;font-variant-numeric:normal;font-variant-east-asian:normal;display:inline;stroke-width:0.150877"
       transform="scale(1.0040113,0.99600473)"><tspan
         style="font-style:normal;font-variant:normal;font-weight:normal;font-stretch:normal;font-size:3.175px;font-family:Asap;-inkscape-font-specification:'Asap, Normal';font-variant-ligatures:normal;font-variant-caps:normal;font-variant-numeric:normal;font-variant-east-asian:normal;stroke-width:0.150877"
         id="tspan171">absent</tspan></text><text
       font-family="Calibri, Calibri_MSFontService, sans-serif"
       font-weight="700"
       font-size="19px"
       id="text176"
       x="321.9967"
       y="182.28342"
       style="font-style:normal;font-variant:normal;font-weight:normal;font-stretch:normal;font-size:3.175px;font-family:Asap;-inkscape-font-specification:'Asap, Normal';font-variant-ligatures:normal;font-variant-caps:normal;font-variant-numeric:normal;font-variant-east-asian:normal;display:inline;stroke-width:0.150877"
       transform="scale(1.0040113,0.99600473)"><tspan
         style="font-style:normal;font-variant:normal;font-weight:normal;font-stretch:normal;font-size:3.175px;font-family:Asap;-inkscape-font-specification:'Asap, Normal';font-variant-ligatures:normal;font-variant-caps:normal;font-variant-numeric:normal;font-variant-east-asian:normal;stroke-width:0.150877"
         id="tspan176">locally</tspan></text><text
       font-family="Calibri, Calibri_MSFontService, sans-serif"
       font-weight="700"
       font-size="19px"
       id="text177"
       x="322.10309"
       y="187.72853"
       style="font-style:normal;font-variant:normal;font-weight:normal;font-stretch:normal;font-size:3.175px;font-family:Asap;-inkscape-font-specification:'Asap, Normal';font-variant-ligatures:normal;font-variant-caps:normal;font-variant-numeric:normal;font-variant-east-asian:normal;display:inline;stroke-width:0.150877"
       transform="scale(1.0040113,0.99600473)"><tspan
         style="font-style:normal;font-variant:normal;font-weight:normal;font-stretch:normal;font-size:3.175px;font-family:Asap;-inkscape-font-specification:'Asap, Normal';font-variant-ligatures:normal;font-variant-caps:normal;font-variant-numeric:normal;font-variant-east-asian:normal;stroke-width:0.150877"
         id="tspan177">absent</tspan></text><g
       id="g178"
       transform="matrix(0.15148242,0,0,0.15027442,192.03556,191.32067)"><text
         font-family="Calibri, Calibri_MSFontService, sans-serif"
         font-weight="700"
         font-size="19px"
         id="text178"
         x="866.57556"
         y="4.522933"
         style="font-style:normal;font-variant:normal;font-weight:normal;font-stretch:normal;font-size:21.0436px;font-family:Asap;-inkscape-font-specification:'Asap, Normal';font-variant-ligatures:normal;font-variant-caps:normal;font-variant-numeric:normal;font-variant-east-asian:normal;display:inline"><tspan
           style="font-style:normal;font-variant:normal;font-weight:normal;font-stretch:normal;font-size:21.0436px;font-family:Asap;-inkscape-font-specification:'Asap, Normal';font-variant-ligatures:normal;font-variant-caps:normal;font-variant-numeric:normal;font-variant-east-asian:normal"
           id="tspan178">tabular</tspan></text></g><text
       font-family="Calibri, Calibri_MSFontService, sans-serif"
       font-weight="700"
       font-size="19px"
       id="text180"
       x="356.66992"
       y="182.47083"
       style="font-style:normal;font-variant:normal;font-weight:600;font-stretch:normal;font-size:3.175px;font-family:Asap;-inkscape-font-specification:'Asap, Semi-Bold';font-variant-ligatures:normal;font-variant-caps:normal;font-variant-numeric:normal;font-variant-east-asian:normal;display:inline;stroke-width:0.150877"
       transform="scale(1.0040113,0.99600476)"><tspan
   style="font-style:normal;font-variant:normal;font-weight:600;font-stretch:normal;font-size:3.175px;font-family:Asap;-inkscape-font-specification:'Asap, Semi-Bold';font-variant-ligatures:normal;font-variant-caps:normal;font-variant-numeric:normal;font-variant-east-asian:normal;stroke-width:0.150877"
   id="tspan205">Storage</tspan>:</text><text
       font-family="Calibri, Calibri_MSFontService, sans-serif"
       font-weight="700"
       font-size="19px"
       id="text181"
       x="356.66174"
       y="192.6161"
       style="font-style:normal;font-variant:normal;font-weight:600;font-stretch:normal;font-size:3.175px;font-family:Asap;-inkscape-font-specification:'Asap, Semi-Bold';font-variant-ligatures:normal;font-variant-caps:normal;font-variant-numeric:normal;font-variant-east-asian:normal;display:inline;stroke-width:0.150877"
       transform="scale(1.0040113,0.99600476)"><tspan
         style="font-style:normal;font-variant:normal;font-weight:600;font-stretch:normal;font-size:3.175px;font-family:Asap;-inkscape-font-specification:'Asap, Semi-Bold';font-variant-ligatures:normal;font-variant-caps:normal;font-variant-numeric:normal;font-variant-east-asian:normal;stroke-width:0.150877"
         id="tspan180"><tspan
   style="font-style:normal;font-variant:normal;font-weight:600;font-stretch:normal;font-size:3.175px;font-family:Asap;-inkscape-font-specification:'Asap, Semi-Bold';font-variant-ligatures:normal;font-variant-caps:normal;font-variant-numeric:normal;font-variant-east-asian:normal;stroke-width:0.150877"
   id="tspan207">Structure</tspan>:</tspan></text><text
       font-family="Calibri, Calibri_MSFontService, sans-serif"
       font-weight="700"
       font-size="19px"
       id="text182"
       x="356.6944"
       y="177.47939"
       style="font-style:normal;font-variant:normal;font-weight:600;font-stretch:normal;font-size:3.175px;font-family:Asap;-inkscape-font-specification:'Asap, Semi-Bold';font-variant-ligatures:normal;font-variant-caps:normal;font-variant-numeric:normal;font-variant-east-asian:normal;display:inline;stroke-width:0.150877"
       transform="scale(1.0040113,0.99600476)"><tspan
         style="font-style:normal;font-variant:normal;font-weight:600;font-stretch:normal;font-size:3.175px;font-family:Asap;-inkscape-font-specification:'Asap, Semi-Bold';font-variant-ligatures:normal;font-variant-caps:normal;font-variant-numeric:normal;font-variant-east-asian:normal;stroke-width:0.150877"
         id="tspan181"><tspan
   style="font-style:normal;font-variant:normal;font-weight:600;font-stretch:normal;font-size:3.175px;font-family:Asap;-inkscape-font-specification:'Asap, Semi-Bold';font-variant-ligatures:normal;font-variant-caps:normal;font-variant-numeric:normal;font-variant-east-asian:normal;stroke-width:0.150877"
   id="tspan204">Metadata</tspan>:</tspan></text><text
       font-family="Calibri, Calibri_MSFontService, sans-serif"
       font-weight="700"
       font-size="19px"
       id="text183"
       x="356.61414"
       y="187.62465"
       style="font-style:normal;font-variant:normal;font-weight:600;font-stretch:normal;font-size:3.175px;font-family:Asap;-inkscape-font-specification:'Asap, Semi-Bold';font-variant-ligatures:normal;font-variant-caps:normal;font-variant-numeric:normal;font-variant-east-asian:normal;display:inline;stroke-width:0.150877"
       transform="scale(1.0040113,0.99600476)">Standards:</text><text
       font-family="Calibri, Calibri_MSFontService, sans-serif"
       font-weight="700"
       font-size="19px"
       id="text184"
       x="374.13928"
       y="177.51018"
       style="font-style:normal;font-variant:normal;font-weight:normal;font-stretch:normal;font-size:3.175px;font-family:Asap;-inkscape-font-specification:'Asap, Normal';font-variant-ligatures:normal;font-variant-caps:normal;font-variant-numeric:normal;font-variant-east-asian:normal;display:inline;stroke-width:0.150877"
       transform="scale(1.0040113,0.99600473)"><tspan
         style="font-style:normal;font-variant:normal;font-weight:normal;font-stretch:normal;font-size:3.175px;font-family:Asap;-inkscape-font-specification:'Asap, Normal';font-variant-ligatures:normal;font-variant-caps:normal;font-variant-numeric:normal;font-variant-east-asian:normal;stroke-width:0.150877"
         id="tspan183">EML and meta XML files</tspan></text><text
       font-family="Calibri, Calibri_MSFontService, sans-serif"
       font-weight="700"
       font-size="19px"
       id="text185"
       x="374.13928"
       y="182.43724"
       style="font-style:normal;font-variant:normal;font-weight:normal;font-stretch:normal;font-size:3.175px;font-family:Asap;-inkscape-font-specification:'Asap, Normal';font-variant-ligatures:normal;font-variant-caps:normal;font-variant-numeric:normal;font-variant-east-asian:normal;display:inline;stroke-width:0.150877"
       transform="scale(1.0040113,0.99600473)"><tspan
         style="font-style:normal;font-variant:normal;font-weight:normal;font-stretch:normal;font-size:3.175px;font-family:Asap;-inkscape-font-specification:'Asap, Normal';font-variant-ligatures:normal;font-variant-caps:normal;font-variant-numeric:normal;font-variant-east-asian:normal;stroke-width:0.150877"
         id="tspan184">??</tspan></text><text
       font-family="Calibri, Calibri_MSFontService, sans-serif"
       font-weight="700"
       font-size="19px"
       id="text186"
       x="374.13928"
       y="187.59805"
       style="font-style:normal;font-variant:normal;font-weight:normal;font-stretch:normal;font-size:3.175px;font-family:Asap;-inkscape-font-specification:'Asap, Normal';font-variant-ligatures:normal;font-variant-caps:normal;font-variant-numeric:normal;font-variant-east-asian:normal;display:inline;stroke-width:0.150877"
       transform="scale(1.0040113,0.99600473)"><tspan
         style="font-style:normal;font-variant:normal;font-weight:normal;font-stretch:normal;font-size:3.175px;font-family:Asap;-inkscape-font-specification:'Asap, Normal';font-variant-ligatures:normal;font-variant-caps:normal;font-variant-numeric:normal;font-variant-east-asian:normal;stroke-width:0.150877"
         id="tspan185">Darwin Core</tspan></text><g
       id="g187"
       transform="matrix(0.15148242,0,0,0.15027442,244.3915,191.07626)"><text
         font-family="Calibri, Calibri_MSFontService, sans-serif"
         font-weight="700"
         font-size="19px"
         id="text187"
         x="866.57556"
         y="4.522933"
         style="font-style:normal;font-variant:normal;font-weight:normal;font-stretch:normal;font-size:21.0436px;font-family:Asap;-inkscape-font-specification:'Asap, Normal';font-variant-ligatures:normal;font-variant-caps:normal;font-variant-numeric:normal;font-variant-east-asian:normal;display:inline"><tspan
           style="font-style:normal;font-variant:normal;font-weight:normal;font-stretch:normal;font-size:21.0436px;font-family:Asap;-inkscape-font-specification:'Asap, Normal';font-variant-ligatures:normal;font-variant-caps:normal;font-variant-numeric:normal;font-variant-east-asian:normal"
           id="tspan186">Darwin Core Archive</tspan></text></g><use
       xlink:href="#grass"
       width="375.46152"
       height="341.32416"
       style="fill:#000000;stroke:none;stroke-width:5.37057"
       id="use1"
       transform="matrix(0.04926531,0,0,0.04926531,305.62443,138.60751)" /><text
       xml:space="preserve"
       style="font-style:normal;font-variant:normal;font-weight:normal;font-stretch:normal;font-size:6.35px;line-height:1.5;font-family:Asap;-inkscape-font-specification:'Asap, Normal';font-variant-ligatures:normal;font-variant-caps:normal;font-variant-numeric:normal;font-variant-east-asian:normal;text-align:center;text-anchor:middle;fill:#000000;fill-opacity:1;stroke-width:0.499999;stroke-linecap:square;stroke-dashoffset:0.326294;stroke-opacity:0.820144"
       x="350.2388"
       y="142.22403"
       id="text194"><tspan
         id="tspan194"
         style="font-style:normal;font-variant:normal;font-weight:normal;font-stretch:normal;font-size:6.35px;line-height:1.5;font-family:Asap;-inkscape-font-specification:'Asap, Normal';font-variant-ligatures:normal;font-variant-caps:normal;font-variant-numeric:normal;font-variant-east-asian:normal;stroke-width:0.500001"
         x="350.2388"
         y="142.22403"><tspan
   style="font-style:normal;font-variant:normal;font-weight:bold;font-stretch:normal;font-size:6.35px;font-family:Asap;-inkscape-font-specification:'Asap, Normal';font-variant-ligatures:normal;font-variant-caps:normal;font-variant-numeric:normal;font-variant-east-asian:normal"
   id="tspan16">Title:</tspan> CLUE data</tspan></text><text
       xml:space="preserve"
       style="font-style:normal;font-variant:normal;font-weight:normal;font-stretch:normal;font-size:4.93889px;line-height:1.5;font-family:Asap;-inkscape-font-specification:'Asap, Normal';font-variant-ligatures:normal;font-variant-caps:normal;font-variant-numeric:normal;font-variant-east-asian:normal;text-align:center;text-anchor:middle;fill:#000000;fill-opacity:1;stroke-width:0.499999;stroke-linecap:square;stroke-dashoffset:0.326294;stroke-opacity:0.820144"
       x="361.23318"
       y="150.1815"
       id="text197"><tspan
         id="tspan197"
         style="font-style:normal;font-variant:normal;font-weight:normal;font-stretch:normal;font-size:4.93889px;font-family:Asap;-inkscape-font-specification:'Asap, Normal';font-variant-ligatures:normal;font-variant-caps:normal;font-variant-numeric:normal;font-variant-east-asian:normal;stroke-width:0.5"
         x="361.23318"
         y="150.1815"><tspan
   style="font-weight:bold"
   id="tspan38">Organisation:</tspan> NIOO-KNAW (TE)</tspan></text><text
       xml:space="preserve"
       style="font-style:normal;font-variant:normal;font-weight:normal;font-stretch:normal;font-size:4.93889px;line-height:1.5;font-family:Asap;-inkscape-font-specification:'Asap, Normal';font-variant-ligatures:normal;font-variant-caps:normal;font-variant-numeric:normal;font-variant-east-asian:normal;text-align:center;text-anchor:middle;display:inline;fill:#000000;fill-opacity:1;stroke-width:0.499999;stroke-linecap:square;stroke-dashoffset:0.326294;stroke-opacity:0.820144"
       x="335.44455"
       y="157.66907"
       id="text197-2"><tspan
         id="tspan197-7"
         style="font-style:normal;font-variant:normal;font-weight:normal;font-stretch:normal;font-size:4.93889px;font-family:Asap;-inkscape-font-specification:'Asap, Normal';font-variant-ligatures:normal;font-variant-caps:normal;font-variant-numeric:normal;font-variant-east-asian:normal;stroke-width:0.5"
         x="336.0372"
         y="157.66907"><tspan
   style="font-style:normal;font-variant:normal;font-weight:bold;font-stretch:normal;font-size:4.93889px;font-family:Asap;-inkscape-font-specification:'Asap, Normal';font-variant-ligatures:normal;font-variant-caps:normal;font-variant-numeric:normal;font-variant-east-asian:normal"
   id="tspan7">DOI:</tspan><tspan
   style="font-weight:bold"
   id="tspan37"> </tspan>?? </tspan></text></g></svg>
