<?xml version="1.0" encoding="UTF-8" standalone="no"?>
<!-- Created with Inkscape (http://www.inkscape.org/) -->

<svg
   width="110.59173mm"
   height="93.668182mm"
   viewBox="0 0 110.59173 93.668182"
   version="1.1"
   id="svg1"
   xml:space="preserve"
   xmlns:xlink="http://www.w3.org/1999/xlink"
   xmlns="http://www.w3.org/2000/svg"
   xmlns:svg="http://www.w3.org/2000/svg"><defs
     id="defs1"><symbol
       id="Telephone"><title
         id="title2">Telephone</title><g
         style="stroke:none"
         id="g2"><path
           d="m 23,36 c 0,24 11,30 13,30 V 49 c -3,0 -3,-8 -3,-13 0,-5 0,-13 3,-13 V 6 C 33,6 23,12 23,36 Z"
           id="path2-5" /><path
           id="ear1"
           d="m 42,23 a 2,2 0 0 0 2,-2 V 8 A 2,2 0 0 0 42,6 h -4 v 17 z" /><use
           y="43"
           xlink:href="#ear1"
           id="use2" /></g></symbol></defs><g
     id="layer1"
     style="display:inline"
     transform="translate(-423.15555,-130.43755)"><rect
       style="opacity:0.997167;fill:none;fill-opacity:0.98452;stroke:#000000;stroke-width:0.235715;stroke-linejoin:round;stroke-dasharray:none;stroke-opacity:1;paint-order:stroke fill markers"
       id="rect269"
       width="110.35599"
       height="93.432472"
       x="423.27344"
       y="130.5554"
       ry="7.4616218" /><path
       style="opacity:1;fill:#000000;fill-opacity:0.98452;stroke:#000000;stroke-width:0.264999;stroke-linejoin:round;stroke-dasharray:none;stroke-opacity:1;paint-order:stroke fill markers"
       d="m 427.4417,162.81775 c 103.9691,0 103.9691,0 103.9691,0 z"
       id="path272" /><rect
       style="opacity:1;fill:none;fill-opacity:0.98452;stroke:#000000;stroke-width:0.264999;stroke-linejoin:round;stroke-dasharray:none;stroke-opacity:1;paint-order:stroke fill markers"
       id="rect272"
       width="19.730736"
       height="24.190424"
       x="428.72766"
       y="134.99995"
       ry="4.7299709" /><g
       id="g273"
       transform="matrix(0.16911217,0,0,0.15806178,430.51093,139.90848)"
       style="fill:#0a1200;fill-opacity:1;stroke:#000000;stroke-opacity:1"><path
         d="M 82.218,32.7772 C 80.8661,28.5983 77.8828,25.1431 73.9457,23.1964 73.9421,23.1947 73.94,23.1909 73.9404,23.187 73.9788,22.7964 74.0004,22.4006 74.0004,22 74.0057,15.3778 68.6416,10.0051 62.0194,9.99978 59.9484,9.99812 57.9123,10.5329 56.1094,11.552 52.5586,5.96832 45.1536,4.32037 39.5699,7.8712 36.9818,9.51705 35.1234,12.0928 34.3776,15.0678 28.6208,11.265 20.8712,12.849 17.0684,18.6058 14.25,22.8724 14.3163,28.4258 17.2358,32.6239 9.2937,34.9685 4.75606,43.3076 7.1007,51.2497 c 2.34464,7.9421 10.6837,12.4797 18.6258,10.1351 0.5428,-0.1603 1.076,-0.3511 1.5972,-0.5716 l 2.8589,2.2327 c 1.818,1.3216 3.5614,2.7429 5.2222,4.2573 l 0.9277,0.8164 C 39.2946,70.7099 40.9957,74.4518 41,78.3867 V 86 c 0,1.6569 -1.3431,3 -3,3 h -1.9464 c -0.5024,-0.0112 -0.9407,0.3393 -1.04,0.832 -0.0924,0.5449 0.2744,1.0615 0.8193,1.1539 C 35.8881,90.9953 35.944,91 36,91 h 18.9464 c 0.5024,0.0112 0.9407,-0.3393 1.04,-0.832 C 56.0788,89.6231 55.712,89.1065 55.1671,89.0141 55.1119,89.0047 55.056,89 55,89 h -2 c -1.6569,0 -3,-1.3431 -3,-3 v -8.5684 c -0.0047,-4.0268 2.2862,-7.7042 5.9028,-9.4751 5.0264,-2.5 11.6392,-6.5717 15.12,-10.5034 l 2.1922,-2.4563 c 6.0714,2.6454 13.1377,-0.1319 15.7831,-6.2033 2.6454,-6.0714 -0.132,-13.1377 -6.2033,-15.7831 -0.1901,-0.0828 -0.3824,-0.1607 -0.5765,-0.2336 z M 69.5278,56.124 C 66.231,59.8481 59.6478,63.8608 55.0122,66.1655 50.7142,68.2726 47.9928,72.6449 48,77.4316 V 86 c 0.0038,1.0854 0.3642,2.1394 1.0256,3 H 41.9744 C 42.6358,88.1394 42.9962,87.0854 43,86 v -7.6133 c -0.0043,-4.511 -1.9538,-8.801 -5.3491,-11.771 L 36.7275,65.8032 C 35.0278,64.2528 33.2431,62.798 31.3818,61.4458 l -2.098,-1.6393 c 0.7107,-0.4314 1.3843,-0.9209 2.0141,-1.4636 3.2801,1.9544 6.296,4.3213 8.9741,7.0428 L 42,67.2217 V 64.7 C 42.0238,61.3502 41.4252,58.025 40.2347,54.8938 40.8206,54.9632 41.41,54.9987 42,55 c 0.4652,0 0.9235,-0.0276 1.3781,-0.0679 0.6957,2.108 1.1745,4.2816 1.429,6.4868 l 0.5552,4.6329 1.3921,-4.4537 c 1.0124,-3.204 2.3242,-6.3056 3.9181,-9.2636 1.5225,-1.0341 2.8506,-2.3288 3.9232,-3.8245 0.3846,0.4329 0.7919,0.8452 1.22,1.2351 -3.2034,4.46 -5.3863,10.59 -6.7689,14.9527 L 48.1039,67.6719 50.6,65.8 c 2.8036,-1.8847 5.7635,-3.5258 8.8472,-4.9053 3.3606,-1.5511 6.2654,-3.9411 8.4347,-6.94 0.9448,-0.0715 1.8819,-0.2233 2.801,-0.4535 l 0.0081,0.0017 c 0.233,0.18 0.4742,0.3486 0.72,0.5111 z M 35.0109,53.4749 c 0.0385,-0.0843 0.0591,-0.1324 0.0591,-0.1324 0,0 0.49,0.2251 0.5683,0.2607 0.692,0.3122 1.4058,0.5736 2.1357,0.7821 0.0492,0.0142 0.0722,0.0185 0.0722,0.0185 1.1336,2.4628 1.8254,5.1057 2.0438,7.8081 -2.2199,-1.9763 -4.6074,-3.756 -7.1355,-5.319 0.9041,-1.0314 1.6632,-2.1813 2.2564,-3.418 z m 10.368,1.1472 c 0.7638,-0.1691 1.5136,-0.3965 2.2427,-0.68 -0.5274,1.1151 -1.0277,2.259 -1.4834,3.4122 -0.2145,-0.9485 -0.4757,-1.8522 -0.7593,-2.7322 z M 65.3616,53.924 c -1.8623,2.1987 -4.1816,3.965 -6.7962,5.176 -1.9956,0.9629 -4.5166,2.18 -6.7163,3.4868 1.3056,-4.0992 3.1635,-8.0015 5.5225,-11.5992 2.3515,1.6782 5.1114,2.6925 7.99,2.9364 z M 79.3639,53.91 c -2.6523,0.367 -5.3405,-0.3521 -7.4553,-1.9944 l -0.7624,-0.5877 -0.0086,-0.0018 -0.934,0.233 c -5.1524,1.32 -10.6091,-0.372 -14.1109,-4.3753 l -0.33,-0.3721 0.4588,-0.6246 c 0.3062,-0.3984 0.2823,-0.9591 -0.0568,-1.33 -0.3844,-0.3965 -1.0175,-0.4063 -1.414,-0.0219 -0.0402,0.0389 -0.0769,0.0811 -0.11,0.1261 l -1.1157,1.5448 c 0,0 -0.4921,0.7339 -0.5535,0.8369 0,0 -0.0467,0.0649 -0.07,0.0962 C 50.3609,50.9235 46.3122,52.9888 42,53 c -2.0949,10e-4 -4.1605,-0.4911 -6.03,-1.4363 0,0 -0.5958,-0.2484 -1.1887,-0.55 -0.3072,-0.156 -0.651,-0.3607 -0.651,-0.3607 l -0.59,-0.3552 c -0.4247,-0.2687 -0.9809,-0.1942 -1.32,0.1767 -0.3603,0.4192 -0.3126,1.0511 0.1066,1.4115 0.0426,0.0366 0.0882,0.0695 0.1363,0.0985 l 0.8137,0.49 -0.0135,0.0287 c -3.0398,6.5 -10.7734,9.305 -17.2733,6.2652 C 9.49009,55.7286 6.68507,47.995 9.72489,41.495 11.2994,38.1283 14.2403,35.5971 17.8039,34.5415 l 0.7629,-0.2261 1.1886,1.3257 c 0.3543,0.3953 0.9558,0.4449 1.37,0.1129 0.4337,-0.3838 0.4742,-1.0466 0.0903,-1.4803 -0.0054,-0.0062 -0.011,-0.0123 -0.0166,-0.0184 L 19.4491,32.3035 19.02,31.687 c -1.1243,-1.5742 -1.8102,-3.4189 -1.9873,-5.3452 -0.4578,-5.7892 3.8641,-10.8534 9.6533,-11.3112 0.8806,-0.0697 1.7665,-0.0281 2.6367,0.1238 1.4675,0.2684 2.8629,0.8396 4.0973,1.6774 l 0.56,0.37 -0.1853,1.7682 c -0.0644,0.5487 0.3243,1.0472 0.8722,1.1183 0.0404,0.0045 0.081,0.0068 0.1217,0.007 0.5113,-7e-4 0.9397,-0.387 0.9931,-0.8955 l 0.2745,-2.6148 0.2023,-0.8035 c 1.006,-4.1845 4.5357,-7.28363 8.8151,-7.74 3.7314,-0.3507 7.3441,1.42158 9.3506,4.5871 l 0.0129,0.02 -1.3418,0.833 c -0.4545,0.2689 -0.6349,0.8359 -0.4194,1.318 0.2422,0.4963 0.8409,0.7024 1.3373,0.4601 0.0304,-0.0148 0.0601,-0.0312 0.0889,-0.0491 l 2.42,-1.5667 c 0.0973,-0.0605 0.4756,-0.2976 0.4756,-0.2976 4.7603,-2.7753 10.8691,-1.1662 13.6445,3.5941 0.8952,1.5355 1.3639,3.2822 1.3578,5.0596 0,0.3217 -0.017,0.6571 -0.05,0.9969 l -0.1352,1.3689 c -4e-4,0.0042 0.0018,0.0081 0.0055,0.01 l 1.2328,0.61 c 3.0863,1.5351 5.5168,4.13 6.8471,7.31 L 79.234,32.1282 c -0.4847,-0.1336 -0.9956,0.0992 -1.2127,0.5527 -0.2227,0.5054 0.0064,1.0956 0.5118,1.3184 0.0516,0.0227 0.1051,0.0411 0.1598,0.0548 l 3.4986,0.88 c 5.0116,2.3142 7.1982,8.2529 4.8839,13.2645 -1.4287,3.094 -4.3354,5.2468 -7.7115,5.7114 z"
         id="path273"
         style="fill:#0a1200;fill-opacity:1;stroke:#000000;stroke-opacity:1" /></g><path
       style="opacity:1;fill:#000000;fill-opacity:0.98452;stroke:#000000;stroke-width:0.21583;stroke-linejoin:round;stroke-dasharray:none;stroke-dashoffset:0.086332;stroke-opacity:1;paint-order:stroke fill markers"
       d="m 478.8181,165.07347 c 0,56.48748 0,56.48748 0,56.48748 z"
       id="path274" /><text
       xml:space="preserve"
       style="font-style:normal;font-variant:normal;font-weight:normal;font-stretch:normal;font-size:4.23333px;line-height:1.55;font-family:Asap;-inkscape-font-specification:'Asap, Normal';font-variant-ligatures:normal;font-variant-caps:normal;font-variant-numeric:normal;font-variant-east-asian:normal;opacity:1;fill:#0a1200;fill-opacity:1;stroke:#000000;stroke-width:0.264999;stroke-linejoin:round;stroke-dasharray:none;stroke-opacity:1;paint-order:stroke fill markers"
       x="441.97159"
       y="169.1909"
       id="text274"><tspan
         id="tspan274"
         style="font-style:normal;font-variant:normal;font-weight:normal;font-stretch:normal;font-size:4.23333px;font-family:Asap;-inkscape-font-specification:'Asap, Normal';font-variant-ligatures:normal;font-variant-caps:normal;font-variant-numeric:normal;font-variant-east-asian:normal;stroke-width:0.265"
         x="441.97159"
         y="169.1909">Initial status</tspan></text><text
       xml:space="preserve"
       style="font-style:normal;font-variant:normal;font-weight:normal;font-stretch:normal;font-size:4.23333px;line-height:1.55;font-family:Asap;-inkscape-font-specification:'Asap, Normal';font-variant-ligatures:normal;font-variant-caps:normal;font-variant-numeric:normal;font-variant-east-asian:normal;opacity:1;fill:#0a1200;fill-opacity:1;stroke:#000000;stroke-width:0.264999;stroke-linejoin:round;stroke-dasharray:none;stroke-opacity:1;paint-order:stroke fill markers"
       x="493.63"
       y="169.05576"
       id="text275"><tspan
         id="tspan275"
         style="font-style:normal;font-variant:normal;font-weight:normal;font-stretch:normal;font-size:4.23333px;font-family:Asap;-inkscape-font-specification:'Asap, Normal';font-variant-ligatures:normal;font-variant-caps:normal;font-variant-numeric:normal;font-variant-east-asian:normal;stroke-width:0.265"
         x="493.63"
         y="169.05576">Current status</tspan></text><path
       d="m 430.76077,200.6634 c 0,-1.32798 1.08522,-2.40439 2.42372,-2.40439 1.33865,0 2.42372,1.07641 2.42372,2.40439 0,1.32797 -1.08507,2.40439 -2.42372,2.40439 -1.3385,0 -2.42372,-1.07642 -2.42372,-2.40439 z"
       stroke="#000000"
       stroke-width="0.201169"
       stroke-miterlimit="8"
       fill="none"
       fill-rule="evenodd"
       id="path275" /><path
       d="m 443.4853,200.6634 c 0,-1.32798 1.05128,-2.40439 2.34797,-2.40439 1.29669,0 2.34798,1.07641 2.34798,2.40439 0,1.32797 -1.05129,2.40439 -2.34798,2.40439 -1.29669,0 -2.34797,-1.07642 -2.34797,-2.40439 z"
       stroke="#000000"
       stroke-width="0.201169"
       stroke-miterlimit="8"
       fill="#ffffff"
       fill-rule="evenodd"
       id="path276" /><path
       d="m 437.12303,200.6634 c 0,-1.32798 1.05129,-2.40439 2.34798,-2.40439 1.29669,0 2.34798,1.07641 2.34798,2.40439 0,1.32797 -1.05129,2.40439 -2.34798,2.40439 -1.29669,0 -2.34798,-1.07642 -2.34798,-2.40439 z"
       stroke="#000000"
       stroke-width="0.201169"
       stroke-miterlimit="8"
       fill="#ffffff"
       fill-rule="evenodd"
       id="path277" /><path
       d="m 449.69608,200.81367 c 0,-1.32797 1.08522,-2.40439 2.42371,-2.40439 1.33865,0 2.42372,1.07642 2.42372,2.40439 0,1.32798 -1.08507,2.40439 -2.42372,2.40439 -1.33849,0 -2.42371,-1.07641 -2.42371,-2.40439 z"
       stroke="#000000"
       stroke-width="0.201169"
       stroke-miterlimit="8"
       fill="#ffffff"
       fill-rule="evenodd"
       id="path278" /><path
       d="m 430.76077,206.44896 c 0,-1.28635 1.08522,-2.32925 2.42372,-2.32925 1.33865,0 2.42372,1.0429 2.42372,2.32925 0,1.28635 -1.08507,2.32926 -2.42372,2.32926 -1.3385,0 -2.42372,-1.04291 -2.42372,-2.32926 z"
       stroke="#000000"
       stroke-width="0.201169"
       stroke-miterlimit="8"
       fill="none"
       fill-rule="evenodd"
       id="path279" /><path
       d="m 443.4853,206.44896 c 0,-1.28635 1.05128,-2.32925 2.34797,-2.32925 1.29669,0 2.34798,1.0429 2.34798,2.32925 0,1.28635 -1.05129,2.32926 -2.34798,2.32926 -1.29669,0 -2.34797,-1.04291 -2.34797,-2.32926 z"
       stroke="#000000"
       stroke-width="0.201169"
       stroke-miterlimit="8"
       fill="none"
       fill-rule="evenodd"
       id="path280" /><path
       d="m 437.12303,206.44896 c 0,-1.28635 1.05129,-2.32925 2.34798,-2.32925 1.29669,0 2.34798,1.0429 2.34798,2.32925 0,1.28635 -1.05129,2.32926 -2.34798,2.32926 -1.29669,0 -2.34798,-1.04291 -2.34798,-2.32926 z"
       stroke="#000000"
       stroke-width="0.201169"
       stroke-miterlimit="8"
       fill="none"
       fill-rule="evenodd"
       id="path281" /><path
       d="m 449.69608,206.5241 c 0,-1.32798 1.08522,-2.40439 2.42371,-2.40439 1.33865,0 2.42372,1.07641 2.42372,2.40439 0,1.32797 -1.08507,2.40439 -2.42372,2.40439 -1.33849,0 -2.42371,-1.07642 -2.42371,-2.40439 z"
       stroke="#000000"
       stroke-width="0.201169"
       stroke-miterlimit="8"
       fill="#ffffff"
       fill-rule="evenodd"
       id="path282" /><path
       d="m 430.76077,212.23453 c 0,-1.32783 1.08522,-2.40439 2.42372,-2.40439 1.33865,0 2.42372,1.07656 2.42372,2.40439 0,1.32797 -1.08507,2.40439 -2.42372,2.40439 -1.3385,0 -2.42372,-1.07642 -2.42372,-2.40439 z"
       stroke="#000000"
       stroke-width="0.201169"
       stroke-miterlimit="8"
       fill="#ef9cda"
       fill-rule="evenodd"
       id="path283"
       style="fill:none" /><path
       d="m 443.4853,212.23453 c 0,-1.32783 1.05128,-2.40439 2.34797,-2.40439 1.29669,0 2.34798,1.07656 2.34798,2.40439 0,1.32797 -1.05129,2.40439 -2.34798,2.40439 -1.29669,0 -2.34797,-1.07642 -2.34797,-2.40439 z"
       stroke="#000000"
       stroke-width="0.201169"
       stroke-miterlimit="8"
       fill="#ffffff"
       fill-rule="evenodd"
       id="path284" /><path
       d="m 437.12303,212.23453 c 0,-1.32783 1.05129,-2.40439 2.34798,-2.40439 1.29669,0 2.34798,1.07656 2.34798,2.40439 0,1.32797 -1.05129,2.40439 -2.34798,2.40439 -1.29669,0 -2.34798,-1.07642 -2.34798,-2.40439 z"
       stroke="#000000"
       stroke-width="0.201169"
       stroke-miterlimit="8"
       fill="#ffffff"
       fill-rule="evenodd"
       id="path285" /><path
       d="m 449.69608,212.23453 c 0,-1.32783 1.08522,-2.40439 2.42371,-2.40439 1.33865,0 2.42372,1.07656 2.42372,2.40439 0,1.32797 -1.08507,2.40439 -2.42372,2.40439 -1.33849,0 -2.42371,-1.07642 -2.42371,-2.40439 z"
       stroke="#000000"
       stroke-width="0.201169"
       stroke-miterlimit="8"
       fill="#ffffff"
       fill-rule="evenodd"
       id="path286" /><path
       d="m 430.76077,218.39578 c 0,-1.32783 1.08522,-2.40439 2.42372,-2.40439 1.33865,0 2.42372,1.07656 2.42372,2.40439 0,1.32797 -1.08507,2.40439 -2.42372,2.40439 -1.3385,0 -2.42372,-1.07642 -2.42372,-2.40439 z"
       stroke="#000000"
       stroke-width="0.201169"
       stroke-miterlimit="8"
       fill="#f4b183"
       fill-rule="evenodd"
       id="path287"
       style="fill:#f9a98a;fill-opacity:1" /><path
       d="m 443.4853,218.39578 c 0,-1.32783 1.05128,-2.40439 2.34797,-2.40439 1.29669,0 2.34798,1.07656 2.34798,2.40439 0,1.32797 -1.05129,2.40439 -2.34798,2.40439 -1.29669,0 -2.34797,-1.07642 -2.34797,-2.40439 z"
       stroke="#000000"
       stroke-width="0.201169"
       stroke-miterlimit="8"
       fill="#f4b183"
       fill-rule="evenodd"
       id="path288"
       style="fill:#f9a98a;fill-opacity:1" /><path
       d="m 437.12303,218.39578 c 0,-1.32783 1.05129,-2.40439 2.34798,-2.40439 1.29669,0 2.34798,1.07656 2.34798,2.40439 0,1.32797 -1.05129,2.40439 -2.34798,2.40439 -1.29669,0 -2.34798,-1.07642 -2.34798,-2.40439 z"
       stroke="#000000"
       stroke-width="0.201169"
       stroke-miterlimit="8"
       fill="#f4b183"
       fill-rule="evenodd"
       id="path289"
       style="fill:#f9a98a;fill-opacity:1" /><path
       d="m 449.69608,218.39578 c 0,-1.32783 1.08522,-2.40439 2.42371,-2.40439 1.33865,0 2.42372,1.07656 2.42372,2.40439 0,1.32797 -1.08507,2.40439 -2.42372,2.40439 -1.33849,0 -2.42371,-1.07642 -2.42371,-2.40439 z"
       stroke="#000000"
       stroke-width="0.201169"
       stroke-miterlimit="8"
       fill="#ffffff"
       fill-rule="evenodd"
       id="path290" /><text
       font-family="Calibri, Calibri_MSFontService, sans-serif"
       font-weight="700"
       font-size="19px"
       id="text290"
       x="454.91132"
       y="207.9617"
       style="font-style:normal;font-variant:normal;font-weight:600;font-stretch:normal;font-size:3.175px;font-family:Asap;-inkscape-font-specification:'Asap, Semi-Bold';font-variant-ligatures:normal;font-variant-caps:normal;font-variant-numeric:normal;font-variant-east-asian:normal;stroke-width:0.150877"
       transform="scale(1.0040113,0.99600476)">Storage</text><text
       font-family="Calibri, Calibri_MSFontService, sans-serif"
       font-weight="700"
       font-size="19px"
       id="text291"
       x="454.90317"
       y="219.7318"
       style="font-style:normal;font-variant:normal;font-weight:600;font-stretch:normal;font-size:3.175px;font-family:Asap;-inkscape-font-specification:'Asap, Semi-Bold';font-variant-ligatures:normal;font-variant-caps:normal;font-variant-numeric:normal;font-variant-east-asian:normal;stroke-width:0.150877"
       transform="scale(1.0040113,0.99600476)">Structure</text><text
       font-family="Calibri, Calibri_MSFontService, sans-serif"
       font-weight="700"
       font-size="19px"
       id="text292"
       x="454.93582"
       y="202.1227"
       style="font-style:normal;font-variant:normal;font-weight:600;font-stretch:normal;font-size:3.175px;font-family:Asap;-inkscape-font-specification:'Asap, Semi-Bold';font-variant-ligatures:normal;font-variant-caps:normal;font-variant-numeric:normal;font-variant-east-asian:normal;stroke-width:0.150877"
       transform="scale(1.0040113,0.99600476)">Metadata</text><text
       font-family="Calibri, Calibri_MSFontService, sans-serif"
       font-weight="700"
       font-size="19px"
       id="text293"
       x="454.85556"
       y="213.75819"
       style="font-style:normal;font-variant:normal;font-weight:600;font-stretch:normal;font-size:3.175px;font-family:Asap;-inkscape-font-specification:'Asap, Semi-Bold';font-variant-ligatures:normal;font-variant-caps:normal;font-variant-numeric:normal;font-variant-east-asian:normal;stroke-width:0.150877"
       transform="scale(1.0040113,0.99600476)">Standards</text><path
       d="m 487.69292,200.6634 c 0,-1.32797 1.08522,-2.40439 2.42371,-2.40439 1.33866,0 2.42373,1.07642 2.42373,2.40439 0,1.32798 -1.08507,2.40439 -2.42373,2.40439 -1.33849,0 -2.42371,-1.07641 -2.42371,-2.40439 z"
       stroke="#000000"
       stroke-width="0.201169"
       stroke-miterlimit="8"
       fill="none"
       fill-rule="evenodd"
       id="path293"
       style="display:inline;fill:#de6e9f;fill-opacity:1" /><path
       d="m 500.41745,200.6634 c 0,-1.32797 1.05128,-2.40439 2.34796,-2.40439 1.2967,0 2.34799,1.07642 2.34799,2.40439 0,1.32798 -1.05129,2.40439 -2.34799,2.40439 -1.29668,0 -2.34796,-1.07641 -2.34796,-2.40439 z"
       stroke="#000000"
       stroke-width="0.201169"
       stroke-miterlimit="8"
       fill="#ffffff"
       fill-rule="evenodd"
       id="path294"
       style="display:inline;fill:#de6e9f;fill-opacity:1" /><path
       d="m 494.05517,200.6634 c 0,-1.32797 1.05129,-2.40439 2.34799,-2.40439 1.29668,0 2.34796,1.07642 2.34796,2.40439 0,1.32798 -1.05128,2.40439 -2.34796,2.40439 -1.2967,0 -2.34799,-1.07641 -2.34799,-2.40439 z"
       stroke="#000000"
       stroke-width="0.201169"
       stroke-miterlimit="8"
       fill="#ffffff"
       fill-rule="evenodd"
       id="path295"
       style="display:inline;fill:#de6e9f;fill-opacity:1" /><path
       d="m 506.62822,200.81368 c 0,-1.32798 1.08522,-2.4044 2.42372,-2.4044 1.33865,0 2.42372,1.07642 2.42372,2.4044 0,1.32797 -1.08507,2.40439 -2.42372,2.40439 -1.3385,0 -2.42372,-1.07642 -2.42372,-2.40439 z"
       stroke="#000000"
       stroke-width="0.201169"
       stroke-miterlimit="8"
       fill="#ffffff"
       fill-rule="evenodd"
       id="path296"
       style="display:inline;fill:none;fill-opacity:1" /><path
       d="m 487.69292,206.44897 c 0,-1.28635 1.08522,-2.32926 2.42371,-2.32926 1.33866,0 2.42373,1.04291 2.42373,2.32926 0,1.28635 -1.08507,2.32925 -2.42373,2.32925 -1.33849,0 -2.42371,-1.0429 -2.42371,-2.32925 z"
       stroke="#000000"
       stroke-width="0.201169"
       stroke-miterlimit="8"
       fill="none"
       fill-rule="evenodd"
       id="path297"
       style="display:inline;fill:#1a729f;fill-opacity:1" /><path
       d="m 500.41745,206.44897 c 0,-1.28635 1.05128,-2.32926 2.34796,-2.32926 1.2967,0 2.34799,1.04291 2.34799,2.32926 0,1.28635 -1.05129,2.32925 -2.34799,2.32925 -1.29668,0 -2.34796,-1.0429 -2.34796,-2.32925 z"
       stroke="#000000"
       stroke-width="0.201169"
       stroke-miterlimit="8"
       fill="none"
       fill-rule="evenodd"
       id="path298"
       style="display:inline;fill:#1a729f;fill-opacity:1" /><path
       d="m 494.05517,206.44897 c 0,-1.28635 1.05129,-2.32926 2.34799,-2.32926 1.29668,0 2.34796,1.04291 2.34796,2.32926 0,1.28635 -1.05128,2.32925 -2.34796,2.32925 -1.2967,0 -2.34799,-1.0429 -2.34799,-2.32925 z"
       stroke="#000000"
       stroke-width="0.201169"
       stroke-miterlimit="8"
       fill="none"
       fill-rule="evenodd"
       id="path299"
       style="display:inline;fill:#1a729f;fill-opacity:1" /><path
       d="m 506.62822,206.5241 c 0,-1.32797 1.08522,-2.40439 2.42372,-2.40439 1.33865,0 2.42372,1.07642 2.42372,2.40439 0,1.32798 -1.08507,2.40439 -2.42372,2.40439 -1.3385,0 -2.42372,-1.07641 -2.42372,-2.40439 z"
       stroke="#000000"
       stroke-width="0.201169"
       stroke-miterlimit="8"
       fill="#ffffff"
       fill-rule="evenodd"
       id="path300"
       style="display:inline;fill:none;fill-opacity:1" /><path
       d="m 487.69292,212.23453 c 0,-1.32782 1.08522,-2.40439 2.42371,-2.40439 1.33866,0 2.42373,1.07657 2.42373,2.40439 0,1.32798 -1.08507,2.40439 -2.42373,2.40439 -1.33849,0 -2.42371,-1.07641 -2.42371,-2.40439 z"
       stroke="#000000"
       stroke-width="0.201169"
       stroke-miterlimit="8"
       fill="#ef9cda"
       fill-rule="evenodd"
       id="path301"
       style="display:inline;fill:#55c2b4;fill-opacity:1" /><path
       d="m 500.41745,212.23453 c 0,-1.32782 1.05128,-2.40439 2.34796,-2.40439 1.2967,0 2.34799,1.07657 2.34799,2.40439 0,1.32798 -1.05129,2.40439 -2.34799,2.40439 -1.29668,0 -2.34796,-1.07641 -2.34796,-2.40439 z"
       stroke="#000000"
       stroke-width="0.201169"
       stroke-miterlimit="8"
       fill="#ffffff"
       fill-rule="evenodd"
       id="path302"
       style="display:inline;fill:#55c2b4;fill-opacity:1" /><path
       d="m 494.05517,212.23453 c 0,-1.32782 1.05129,-2.40439 2.34799,-2.40439 1.29668,0 2.34796,1.07657 2.34796,2.40439 0,1.32798 -1.05128,2.40439 -2.34796,2.40439 -1.2967,0 -2.34799,-1.07641 -2.34799,-2.40439 z"
       stroke="#000000"
       stroke-width="0.201169"
       stroke-miterlimit="8"
       fill="#ffffff"
       fill-rule="evenodd"
       id="path303"
       style="display:inline;fill:#55c2b4;fill-opacity:1" /><path
       d="m 506.62822,212.23453 c 0,-1.32782 1.08522,-2.40439 2.42372,-2.40439 1.33865,0 2.42372,1.07657 2.42372,2.40439 0,1.32798 -1.08507,2.40439 -2.42372,2.40439 -1.3385,0 -2.42372,-1.07641 -2.42372,-2.40439 z"
       stroke="#000000"
       stroke-width="0.201169"
       stroke-miterlimit="8"
       fill="#ffffff"
       fill-rule="evenodd"
       id="path304"
       style="display:inline;fill:none;fill-opacity:1" /><path
       d="m 487.69292,218.39578 c 0,-1.32782 1.08522,-2.40439 2.42371,-2.40439 1.33866,0 2.42373,1.07657 2.42373,2.40439 0,1.32798 -1.08507,2.40439 -2.42373,2.40439 -1.33849,0 -2.42371,-1.07641 -2.42371,-2.40439 z"
       stroke="#000000"
       stroke-width="0.201169"
       stroke-miterlimit="8"
       fill="#f4b183"
       fill-rule="evenodd"
       id="path305"
       style="display:inline;fill:#f9a98a;fill-opacity:1" /><path
       d="m 500.41745,218.39578 c 0,-1.32782 1.05128,-2.40439 2.34796,-2.40439 1.2967,0 2.34799,1.07657 2.34799,2.40439 0,1.32798 -1.05129,2.40439 -2.34799,2.40439 -1.29668,0 -2.34796,-1.07641 -2.34796,-2.40439 z"
       stroke="#000000"
       stroke-width="0.201169"
       stroke-miterlimit="8"
       fill="#f4b183"
       fill-rule="evenodd"
       id="path306"
       style="display:inline;fill:#f9a98a;fill-opacity:1" /><path
       d="m 494.05517,218.39578 c 0,-1.32782 1.05129,-2.40439 2.34799,-2.40439 1.29668,0 2.34796,1.07657 2.34796,2.40439 0,1.32798 -1.05128,2.40439 -2.34796,2.40439 -1.2967,0 -2.34799,-1.07641 -2.34799,-2.40439 z"
       stroke="#000000"
       stroke-width="0.201169"
       stroke-miterlimit="8"
       fill="#f4b183"
       fill-rule="evenodd"
       id="path307"
       style="display:inline;fill:#f9a98a;fill-opacity:1" /><path
       d="m 506.62822,218.39578 c 0,-1.32782 1.08522,-2.40439 2.42372,-2.40439 1.33865,0 2.42372,1.07657 2.42372,2.40439 0,1.32798 -1.08507,2.40439 -2.42372,2.40439 -1.3385,0 -2.42372,-1.07641 -2.42372,-2.40439 z"
       stroke="#000000"
       stroke-width="0.201169"
       stroke-miterlimit="8"
       fill="#ffffff"
       fill-rule="evenodd"
       id="path308"
       style="display:inline;fill:#f9a98a;fill-opacity:1" /><text
       font-family="Calibri, Calibri_MSFontService, sans-serif"
       font-weight="700"
       font-size="19px"
       id="text308"
       x="511.61603"
       y="207.9617"
       style="font-style:normal;font-variant:normal;font-weight:600;font-stretch:normal;font-size:3.175px;font-family:Asap;-inkscape-font-specification:'Asap, Semi-Bold';font-variant-ligatures:normal;font-variant-caps:normal;font-variant-numeric:normal;font-variant-east-asian:normal;display:inline;stroke-width:0.150877"
       transform="scale(1.0040113,0.99600476)">Storage</text><text
       font-family="Calibri, Calibri_MSFontService, sans-serif"
       font-weight="700"
       font-size="19px"
       id="text309"
       x="511.60785"
       y="219.73181"
       style="font-style:normal;font-variant:normal;font-weight:600;font-stretch:normal;font-size:3.175px;font-family:Asap;-inkscape-font-specification:'Asap, Semi-Bold';font-variant-ligatures:normal;font-variant-caps:normal;font-variant-numeric:normal;font-variant-east-asian:normal;display:inline;stroke-width:0.150877"
       transform="scale(1.0040113,0.99600476)">Structure</text><text
       font-family="Calibri, Calibri_MSFontService, sans-serif"
       font-weight="700"
       font-size="19px"
       id="text310"
       x="511.64053"
       y="202.1227"
       style="font-style:normal;font-variant:normal;font-weight:600;font-stretch:normal;font-size:3.175px;font-family:Asap;-inkscape-font-specification:'Asap, Semi-Bold';font-variant-ligatures:normal;font-variant-caps:normal;font-variant-numeric:normal;font-variant-east-asian:normal;display:inline;stroke-width:0.150877"
       transform="scale(1.0040113,0.99600476)">Metadata</text><text
       font-family="Calibri, Calibri_MSFontService, sans-serif"
       font-weight="700"
       font-size="19px"
       id="text311"
       x="511.56024"
       y="213.75821"
       style="font-style:normal;font-variant:normal;font-weight:600;font-stretch:normal;font-size:3.175px;font-family:Asap;-inkscape-font-specification:'Asap, Semi-Bold';font-variant-ligatures:normal;font-variant-caps:normal;font-variant-numeric:normal;font-variant-east-asian:normal;display:inline;stroke-width:0.150877"
       transform="scale(1.0040113,0.99600476)">Standards</text><text
       font-family="Calibri, Calibri_MSFontService, sans-serif"
       font-weight="700"
       font-size="19px"
       id="text312"
       x="426.85513"
       y="182.1275"
       style="font-style:normal;font-variant:normal;font-weight:600;font-stretch:normal;font-size:3.175px;font-family:Asap;-inkscape-font-specification:'Asap, Semi-Bold';font-variant-ligatures:normal;font-variant-caps:normal;font-variant-numeric:normal;font-variant-east-asian:normal;display:inline;stroke-width:0.150877"
       transform="scale(1.0040113,0.99600476)"><tspan
   style="font-style:normal;font-variant:normal;font-weight:600;font-stretch:normal;font-size:3.175px;font-family:Asap;-inkscape-font-specification:'Asap, Semi-Bold';font-variant-ligatures:normal;font-variant-caps:normal;font-variant-numeric:normal;font-variant-east-asian:normal;stroke-width:0.150877"
   id="tspan339">Storage</tspan>:</text><text
       font-family="Calibri, Calibri_MSFontService, sans-serif"
       font-weight="700"
       font-size="19px"
       id="text313"
       x="426.84695"
       y="192.69719"
       style="font-style:normal;font-variant:normal;font-weight:600;font-stretch:normal;font-size:3.175px;font-family:Asap;-inkscape-font-specification:'Asap, Semi-Bold';font-variant-ligatures:normal;font-variant-caps:normal;font-variant-numeric:normal;font-variant-east-asian:normal;display:inline;stroke-width:0.150877"
       transform="scale(1.0040113,0.99600476)"><tspan
         style="font-style:normal;font-variant:normal;font-weight:600;font-stretch:normal;font-size:3.175px;font-family:Asap;-inkscape-font-specification:'Asap, Semi-Bold';font-variant-ligatures:normal;font-variant-caps:normal;font-variant-numeric:normal;font-variant-east-asian:normal;stroke-width:0.150877"
         id="tspan312"><tspan
   style="font-style:normal;font-variant:normal;font-weight:600;font-stretch:normal;font-size:3.175px;font-family:Asap;-inkscape-font-specification:'Asap, Semi-Bold';font-variant-ligatures:normal;font-variant-caps:normal;font-variant-numeric:normal;font-variant-east-asian:normal;stroke-width:0.150877"
   id="tspan341">Structure</tspan>:</tspan></text><text
       font-family="Calibri, Calibri_MSFontService, sans-serif"
       font-weight="700"
       font-size="19px"
       id="text314"
       x="426.87961"
       y="177.36406"
       style="font-style:normal;font-variant:normal;font-weight:600;font-stretch:normal;font-size:3.175px;font-family:Asap;-inkscape-font-specification:'Asap, Semi-Bold';font-variant-ligatures:normal;font-variant-caps:normal;font-variant-numeric:normal;font-variant-east-asian:normal;display:inline;stroke-width:0.150877"
       transform="scale(1.0040113,0.99600476)"><tspan
         style="font-style:normal;font-variant:normal;font-weight:600;font-stretch:normal;font-size:3.175px;font-family:Asap;-inkscape-font-specification:'Asap, Semi-Bold';font-variant-ligatures:normal;font-variant-caps:normal;font-variant-numeric:normal;font-variant-east-asian:normal;stroke-width:0.150877"
         id="tspan313"><tspan
   style="font-style:normal;font-variant:normal;font-weight:600;font-stretch:normal;font-size:3.175px;font-family:Asap;-inkscape-font-specification:'Asap, Semi-Bold';font-variant-ligatures:normal;font-variant-caps:normal;font-variant-numeric:normal;font-variant-east-asian:normal;stroke-width:0.150877"
   id="tspan338">Metadata</tspan>:</tspan></text><text
       font-family="Calibri, Calibri_MSFontService, sans-serif"
       font-weight="700"
       font-size="19px"
       id="text315"
       x="426.79938"
       y="187.6132"
       style="font-style:normal;font-variant:normal;font-weight:600;font-stretch:normal;font-size:3.175px;font-family:Asap;-inkscape-font-specification:'Asap, Semi-Bold';font-variant-ligatures:normal;font-variant-caps:normal;font-variant-numeric:normal;font-variant-east-asian:normal;display:inline;stroke-width:0.150877"
       transform="scale(1.0040113,0.99600476)">Standards:</text><text
       font-family="Calibri, Calibri_MSFontService, sans-serif"
       font-weight="700"
       font-size="19px"
       id="text316"
       x="445.52344"
       y="177.36406"
       style="font-style:normal;font-variant:normal;font-weight:normal;font-stretch:normal;font-size:3.175px;font-family:Asap;-inkscape-font-specification:'Asap, Normal';font-variant-ligatures:normal;font-variant-caps:normal;font-variant-numeric:normal;font-variant-east-asian:normal;display:inline;stroke-width:0.150877"
       transform="scale(1.0040113,0.99600473)"><tspan
         style="font-style:normal;font-variant:normal;font-weight:normal;font-stretch:normal;font-size:3.175px;font-family:Asap;-inkscape-font-specification:'Asap, Normal';font-variant-ligatures:normal;font-variant-caps:normal;font-variant-numeric:normal;font-variant-east-asian:normal;stroke-width:0.150877"
         id="tspan315">absent</tspan></text><text
       font-family="Calibri, Calibri_MSFontService, sans-serif"
       font-weight="700"
       font-size="19px"
       id="text317"
       x="445.41708"
       y="182.16809"
       style="font-style:normal;font-variant:normal;font-weight:normal;font-stretch:normal;font-size:3.175px;font-family:Asap;-inkscape-font-specification:'Asap, Normal';font-variant-ligatures:normal;font-variant-caps:normal;font-variant-numeric:normal;font-variant-east-asian:normal;display:inline;stroke-width:0.150877"
       transform="scale(1.0040113,0.99600473)"><tspan
         style="font-style:normal;font-variant:normal;font-weight:normal;font-stretch:normal;font-size:3.175px;font-family:Asap;-inkscape-font-specification:'Asap, Normal';font-variant-ligatures:normal;font-variant-caps:normal;font-variant-numeric:normal;font-variant-east-asian:normal;stroke-width:0.150877"
         id="tspan316">locally</tspan></text><text
       font-family="Calibri, Calibri_MSFontService, sans-serif"
       font-weight="700"
       font-size="19px"
       id="text318"
       x="445.52344"
       y="187.6132"
       style="font-style:normal;font-variant:normal;font-weight:normal;font-stretch:normal;font-size:3.175px;font-family:Asap;-inkscape-font-specification:'Asap, Normal';font-variant-ligatures:normal;font-variant-caps:normal;font-variant-numeric:normal;font-variant-east-asian:normal;display:inline;stroke-width:0.150877"
       transform="scale(1.0040113,0.99600473)"><tspan
         style="font-style:normal;font-variant:normal;font-weight:normal;font-stretch:normal;font-size:3.175px;font-family:Asap;-inkscape-font-specification:'Asap, Normal';font-variant-ligatures:normal;font-variant-caps:normal;font-variant-numeric:normal;font-variant-east-asian:normal;stroke-width:0.150877"
         id="tspan317">absent</tspan></text><text
       font-family="Calibri, Calibri_MSFontService, sans-serif"
       font-weight="700"
       font-size="19px"
       id="text319"
       x="445.43527"
       y="192.6552"
       style="font-style:normal;font-variant:normal;font-weight:normal;font-stretch:normal;font-size:3.175px;font-family:Asap;-inkscape-font-specification:'Asap, Normal';font-variant-ligatures:normal;font-variant-caps:normal;font-variant-numeric:normal;font-variant-east-asian:normal;display:inline;stroke-width:0.150877"
       transform="scale(1.0040113,0.99600473)"><tspan
         style="font-style:normal;font-variant:normal;font-weight:normal;font-stretch:normal;font-size:3.175px;font-family:Asap;-inkscape-font-specification:'Asap, Normal';font-variant-ligatures:normal;font-variant-caps:normal;font-variant-numeric:normal;font-variant-east-asian:normal;stroke-width:0.150877"
         id="tspan318">relational database</tspan></text><text
       font-family="Calibri, Calibri_MSFontService, sans-serif"
       font-weight="700"
       font-size="19px"
       id="text321"
       x="480.09027"
       y="182.35551"
       style="font-style:normal;font-variant:normal;font-weight:600;font-stretch:normal;font-size:3.175px;font-family:Asap;-inkscape-font-specification:'Asap, Semi-Bold';font-variant-ligatures:normal;font-variant-caps:normal;font-variant-numeric:normal;font-variant-east-asian:normal;display:inline;stroke-width:0.150877"
       transform="scale(1.0040113,0.99600476)"><tspan
   style="font-style:normal;font-variant:normal;font-weight:600;font-stretch:normal;font-size:3.175px;font-family:Asap;-inkscape-font-specification:'Asap, Semi-Bold';font-variant-ligatures:normal;font-variant-caps:normal;font-variant-numeric:normal;font-variant-east-asian:normal;stroke-width:0.150877"
   id="tspan343">Storage</tspan>:</text><text
       font-family="Calibri, Calibri_MSFontService, sans-serif"
       font-weight="700"
       font-size="19px"
       id="text322"
       x="480.08209"
       y="192.50078"
       style="font-style:normal;font-variant:normal;font-weight:600;font-stretch:normal;font-size:3.175px;font-family:Asap;-inkscape-font-specification:'Asap, Semi-Bold';font-variant-ligatures:normal;font-variant-caps:normal;font-variant-numeric:normal;font-variant-east-asian:normal;display:inline;stroke-width:0.150877"
       transform="scale(1.0040113,0.99600476)"><tspan
         style="font-style:normal;font-variant:normal;font-weight:600;font-stretch:normal;font-size:3.175px;font-family:Asap;-inkscape-font-specification:'Asap, Semi-Bold';font-variant-ligatures:normal;font-variant-caps:normal;font-variant-numeric:normal;font-variant-east-asian:normal;stroke-width:0.150877"
         id="tspan321"><tspan
   style="font-style:normal;font-variant:normal;font-weight:600;font-stretch:normal;font-size:3.175px;font-family:Asap;-inkscape-font-specification:'Asap, Semi-Bold';font-variant-ligatures:normal;font-variant-caps:normal;font-variant-numeric:normal;font-variant-east-asian:normal;stroke-width:0.150877"
   id="tspan345">Structure</tspan>:</tspan></text><text
       font-family="Calibri, Calibri_MSFontService, sans-serif"
       font-weight="700"
       font-size="19px"
       id="text323"
       x="480.11478"
       y="177.36406"
       style="font-style:normal;font-variant:normal;font-weight:600;font-stretch:normal;font-size:3.175px;font-family:Asap;-inkscape-font-specification:'Asap, Semi-Bold';font-variant-ligatures:normal;font-variant-caps:normal;font-variant-numeric:normal;font-variant-east-asian:normal;display:inline;stroke-width:0.150877"
       transform="scale(1.0040113,0.99600476)"><tspan
         style="font-style:normal;font-variant:normal;font-weight:600;font-stretch:normal;font-size:3.175px;font-family:Asap;-inkscape-font-specification:'Asap, Semi-Bold';font-variant-ligatures:normal;font-variant-caps:normal;font-variant-numeric:normal;font-variant-east-asian:normal;stroke-width:0.150877"
         id="tspan322"><tspan
   style="font-style:normal;font-variant:normal;font-weight:600;font-stretch:normal;font-size:3.175px;font-family:Asap;-inkscape-font-specification:'Asap, Semi-Bold';font-variant-ligatures:normal;font-variant-caps:normal;font-variant-numeric:normal;font-variant-east-asian:normal;stroke-width:0.150877"
   id="tspan342">Metadata</tspan>:</tspan></text><text
       font-family="Calibri, Calibri_MSFontService, sans-serif"
       font-weight="700"
       font-size="19px"
       id="text324"
       x="480.03452"
       y="187.50934"
       style="font-style:normal;font-variant:normal;font-weight:600;font-stretch:normal;font-size:3.175px;font-family:Asap;-inkscape-font-specification:'Asap, Semi-Bold';font-variant-ligatures:normal;font-variant-caps:normal;font-variant-numeric:normal;font-variant-east-asian:normal;display:inline;stroke-width:0.150877"
       transform="scale(1.0040113,0.99600476)">Standards:</text><text
       font-family="Calibri, Calibri_MSFontService, sans-serif"
       font-weight="700"
       font-size="19px"
       id="text325"
       x="497.55963"
       y="177.39485"
       style="font-style:normal;font-variant:normal;font-weight:normal;font-stretch:normal;font-size:3.175px;font-family:Asap;-inkscape-font-specification:'Asap, Normal';font-variant-ligatures:normal;font-variant-caps:normal;font-variant-numeric:normal;font-variant-east-asian:normal;display:inline;stroke-width:0.150877"
       transform="scale(1.0040113,0.99600473)"><tspan
         style="font-style:normal;font-variant:normal;font-weight:normal;font-stretch:normal;font-size:3.175px;font-family:Asap;-inkscape-font-specification:'Asap, Normal';font-variant-ligatures:normal;font-variant-caps:normal;font-variant-numeric:normal;font-variant-east-asian:normal;stroke-width:0.150877"
         id="tspan324">EML and meta XML files</tspan></text><text
       font-family="Calibri, Calibri_MSFontService, sans-serif"
       font-weight="700"
       font-size="19px"
       id="text326"
       x="497.55963"
       y="182.32191"
       style="font-style:normal;font-variant:normal;font-weight:normal;font-stretch:normal;font-size:3.175px;font-family:Asap;-inkscape-font-specification:'Asap, Normal';font-variant-ligatures:normal;font-variant-caps:normal;font-variant-numeric:normal;font-variant-east-asian:normal;display:inline;stroke-width:0.150877"
       transform="scale(1.0040113,0.99600473)"><tspan
         style="font-style:normal;font-variant:normal;font-weight:normal;font-stretch:normal;font-size:3.175px;font-family:Asap;-inkscape-font-specification:'Asap, Normal';font-variant-ligatures:normal;font-variant-caps:normal;font-variant-numeric:normal;font-variant-east-asian:normal;stroke-width:0.150877"
         id="tspan325">DataverseNL</tspan></text><text
       font-family="Calibri, Calibri_MSFontService, sans-serif"
       font-weight="700"
       font-size="19px"
       id="text327"
       x="497.55963"
       y="187.48274"
       style="font-style:normal;font-variant:normal;font-weight:normal;font-stretch:normal;font-size:3.175px;font-family:Asap;-inkscape-font-specification:'Asap, Normal';font-variant-ligatures:normal;font-variant-caps:normal;font-variant-numeric:normal;font-variant-east-asian:normal;display:inline;stroke-width:0.150877"
       transform="scale(1.0040113,0.99600473)"><tspan
         style="font-style:normal;font-variant:normal;font-weight:normal;font-stretch:normal;font-size:3.175px;font-family:Asap;-inkscape-font-specification:'Asap, Normal';font-variant-ligatures:normal;font-variant-caps:normal;font-variant-numeric:normal;font-variant-east-asian:normal;stroke-width:0.150877"
         id="tspan326">Darwin Core</tspan></text><text
       font-family="Calibri, Calibri_MSFontService, sans-serif"
       font-weight="700"
       font-size="19px"
       id="text328"
       x="497.58203"
       y="192.40981"
       style="font-style:normal;font-variant:normal;font-weight:normal;font-stretch:normal;font-size:3.175px;font-family:Asap;-inkscape-font-specification:'Asap, Normal';font-variant-ligatures:normal;font-variant-caps:normal;font-variant-numeric:normal;font-variant-east-asian:normal;display:inline;stroke-width:0.150877"
       transform="scale(1.0040113,0.99600473)"><tspan
         style="font-style:normal;font-variant:normal;font-weight:normal;font-stretch:normal;font-size:3.175px;font-family:Asap;-inkscape-font-specification:'Asap, Normal';font-variant-ligatures:normal;font-variant-caps:normal;font-variant-numeric:normal;font-variant-east-asian:normal;stroke-width:0.150877"
         id="tspan327">Darwin Core Archive</tspan></text><text
       xml:space="preserve"
       style="font-style:normal;font-variant:normal;font-weight:normal;font-stretch:normal;font-size:6.35px;line-height:1.5;font-family:Asap;-inkscape-font-specification:'Asap, Normal';font-variant-ligatures:normal;font-variant-caps:normal;font-variant-numeric:normal;font-variant-east-asian:normal;text-align:center;text-anchor:middle;fill:#000000;fill-opacity:1;stroke-width:0.499999;stroke-linecap:square;stroke-dashoffset:0.326294;stroke-opacity:0.820144"
       x="479.53326"
       y="142.21768"
       id="text331"><tspan
         id="tspan331"
         style="font-style:normal;font-variant:normal;font-weight:normal;font-stretch:normal;font-size:6.35px;line-height:1.5;font-family:Asap;-inkscape-font-specification:'Asap, Normal';font-variant-ligatures:normal;font-variant-caps:normal;font-variant-numeric:normal;font-variant-east-asian:normal;stroke-width:0.500001"
         x="479.53326"
         y="142.21768"><tspan
   style="font-weight:bold"
   id="tspan17">Title: </tspan>Bud burst data</tspan></text><text
       xml:space="preserve"
       style="font-style:normal;font-variant:normal;font-weight:normal;font-stretch:normal;font-size:4.93889px;line-height:1.5;font-family:Asap;-inkscape-font-specification:'Asap, Normal';font-variant-ligatures:normal;font-variant-caps:normal;font-variant-numeric:normal;font-variant-east-asian:normal;text-align:center;text-anchor:middle;fill:#000000;fill-opacity:1;stroke-width:0.499999;stroke-linecap:square;stroke-dashoffset:0.326294;stroke-opacity:0.820144"
       x="486.57062"
       y="150.1815"
       id="text333"><tspan
         id="tspan333"
         style="font-style:normal;font-variant:normal;font-weight:normal;font-stretch:normal;font-size:4.93889px;font-family:Asap;-inkscape-font-specification:'Asap, Normal';font-variant-ligatures:normal;font-variant-caps:normal;font-variant-numeric:normal;font-variant-east-asian:normal;stroke-width:0.5"
         x="486.57062"
         y="150.1815"><tspan
   style="font-weight:bold"
   id="tspan36">Organisation: </tspan>NIOO-KNAW (AnE)</tspan></text><text
       xml:space="preserve"
       style="font-style:normal;font-variant:normal;font-weight:normal;font-stretch:normal;font-size:4.93889px;line-height:1.5;font-family:Asap;-inkscape-font-specification:'Asap, Normal';font-variant-ligatures:normal;font-variant-caps:normal;font-variant-numeric:normal;font-variant-east-asian:normal;text-align:center;text-anchor:middle;display:inline;fill:#000000;fill-opacity:1;stroke-width:0.499999;stroke-linecap:square;stroke-dashoffset:0.326294;stroke-opacity:0.820144"
       x="477.63672"
       y="157.33322"
       id="text335"><tspan
         id="tspan335"
         style="font-style:normal;font-variant:normal;font-weight:normal;font-stretch:normal;font-size:4.93889px;font-family:Asap;-inkscape-font-specification:'Asap, Normal';font-variant-ligatures:normal;font-variant-caps:normal;font-variant-numeric:normal;font-variant-east-asian:normal;stroke-width:0.5"
         x="478.22937"
         y="157.33322"><tspan
   style="font-style:normal;font-variant:normal;font-weight:bold;font-stretch:normal;font-size:4.93889px;font-family:Asap;-inkscape-font-specification:'Asap, Normal';font-variant-ligatures:normal;font-variant-caps:normal;font-variant-numeric:normal;font-variant-east-asian:normal"
   id="tspan334">DOI: </tspan>110.34894/5SOKTV </tspan></text></g></svg>
