<svg width="379" height="380" xmlns="http://www.w3.org/2000/svg" xmlns:xlink="http://www.w3.org/1999/xlink" xml:space="preserve" overflow="hidden"><defs><clipPath id="clip0"><rect x="512" y="65" width="379" height="380"/></clipPath></defs><g clip-path="url(#clip0)" transform="translate(-512 -65)"><path d="M183.583 284.773C183.583 329.79 147.09 366.285 102.071 366.285 57.0543 366.285 20.5602 329.79 20.5601 284.773 20.56 239.755 57.0539 203.261 102.071 203.261L183.583 203.261Z" stroke="#008EB3" stroke-width="26.4352" stroke-miterlimit="10" fill="none" transform="matrix(1 0 0 1.00264 505.008 64.4198)"/><path d="M290.898 203.261C335.916 203.261 372.41 239.755 372.41 284.773 372.41 329.79 335.916 366.285 290.898 366.285 245.881 366.285 209.387 329.79 209.387 284.773L209.387 203.261Z" stroke="#008EB3" stroke-width="26.4352" stroke-miterlimit="10" fill="none" transform="matrix(1 0 0 1.00264 505.008 64.4198)"/><path d="M290.925 366.285C245.907 366.285 209.413 329.79 209.413 284.773" stroke="#96D6F7" stroke-width="26.4352" stroke-miterlimit="10" fill="none" transform="matrix(1 0 0 1.00264 505.008 64.4198)"/><path d="M283.569 379 304.628 364.928 283.569 352.41 283.569 379Z" fill="#96D4F5" transform="matrix(1 0 0 1.00264 512.338 65)"/><path d="M209.413 95.3851C209.413 50.3674 245.907 13.8735 290.925 13.8735 335.942 13.8735 372.436 50.3674 372.436 95.3851 372.436 140.403 335.942 176.897 290.925 176.897L209.413 176.897Z" stroke="#008EB3" stroke-width="26.4352" stroke-miterlimit="10" fill="none" transform="matrix(1 0 0 1.00264 505.008 64.4198)"/><path d="M102.06 176.897C57.0416 176.897 20.5478 140.403 20.548 95.3842 20.5483 50.367 57.0424 13.8732 102.06 13.8735 147.078 13.8737 183.571 50.3676 183.571 95.3851L183.571 176.897Z" stroke="#008EB3" stroke-width="26.4352" stroke-miterlimit="10" fill="none" transform="matrix(1 0 0 1.00264 505.008 64.4198)"/><path d="M102.084 13.8735C147.102 13.8735 183.596 50.3675 183.596 95.3851" stroke="#96D6F7" stroke-width="26.4352" stroke-miterlimit="10" fill="none" transform="matrix(1 0 0 1.00264 505.008 64.4198)"/><path d="M94.7541 0 73.6946 14.0729 94.7541 26.5896 94.7541 0Z" fill="#96D4F5" transform="matrix(1 0 0 1.00264 512.338 65)"/><path d="M303.981 189.575C303.981 252.988 252.575 304.394 189.162 304.394 125.749 304.394 74.3426 252.988 74.3426 189.575 74.3426 126.162 125.749 74.7554 189.162 74.7554 252.575 74.7554 303.981 126.162 303.981 189.575Z" fill="#0D8EB3" transform="matrix(1 0 0 1.00264 512.338 65)"/><path d="M126.574 139.339 126.574 174.882 146.627 174.882C147.956 174.792 149.271 175.209 150.307 176.047 151.145 176.788 151.615 177.86 151.59 178.979 151.627 180.091 151.163 181.162 150.324 181.894 149.269 182.706 147.954 183.103 146.627 183.009L122.743 183.009C120.588 183.009 119.039 182.532 118.095 181.577 117.151 180.622 116.68 179.079 116.68 176.946L116.68 139.339C116.558 137.725 117.038 136.123 118.029 134.843 118.931 133.842 120.231 133.292 121.576 133.344 122.939 133.291 124.257 133.832 125.191 134.826 126.112 135.814 126.573 137.318 126.574 139.339Z" fill="#FFFFFF" transform="matrix(1 0 0 1.00264 505.008 64.4198)"/><path d="M181.269 142.337 170.476 142.337 170.476 177.813C170.476 179.857 170.021 181.372 169.111 182.36 168.206 183.345 166.917 183.887 165.58 183.842 164.225 183.888 162.917 183.341 161.999 182.343 160.984 181.062 160.49 179.443 160.617 177.813L160.617 142.337 149.824 142.337C148.475 142.445 147.132 142.047 146.06 141.221 145.234 140.468 144.783 139.389 144.827 138.273 144.774 137.131 145.246 136.026 146.11 135.275 147.176 134.475 148.494 134.085 149.824 134.176L181.269 134.176C182.637 134.067 183.996 134.472 185.083 135.308 185.916 136.065 186.373 137.149 186.332 138.273 186.374 139.396 185.91 140.478 185.066 141.221 183.979 142.043 182.628 142.44 181.269 142.337Z" fill="#FFFFFF" transform="matrix(1 0 0 1.00264 505.008 64.4198)"/><path d="M224.373 141.804 202.088 141.804 202.088 153.796 222.608 153.796C223.822 153.701 225.028 154.064 225.989 154.811 226.737 155.498 227.144 156.479 227.104 157.493 227.142 158.513 226.742 159.501 226.005 160.208 225.05 160.983 223.833 161.358 222.608 161.257L202.088 161.257 202.088 175.148 225.139 175.148C226.405 175.054 227.659 175.44 228.654 176.23 229.45 176.972 229.882 178.024 229.835 179.111 229.873 180.177 229.441 181.207 228.654 181.926 227.66 182.717 226.405 183.103 225.139 183.009L198.257 183.009C196.103 183.009 194.554 182.532 193.611 181.577 192.666 180.622 192.194 179.079 192.195 176.946L192.195 140.239C192.152 139.046 192.367 137.858 192.828 136.758 193.226 135.882 193.931 135.183 194.81 134.792 195.903 134.345 197.078 134.135 198.257 134.176L224.373 134.176C225.634 134.075 226.888 134.45 227.887 135.226 228.655 135.928 229.076 136.933 229.036 137.973 229.08 139.025 228.66 140.041 227.887 140.755 226.888 141.531 225.634 141.904 224.373 141.804Z" fill="#FFFFFF" transform="matrix(1 0 0 1.00264 505.008 64.4198)"/><path d="M250.988 162.124 247.524 162.124 247.524 177.813C247.524 179.878 247.069 181.399 246.158 182.377 245.238 183.357 243.937 183.892 242.593 183.842 241.202 183.921 239.851 183.356 238.929 182.309 237.977 181.012 237.516 179.418 237.63 177.813L237.63 140.239C237.63 138.107 238.108 136.563 239.063 135.608 240.018 134.653 241.562 134.176 243.693 134.176L259.782 134.176C261.685 134.16 263.587 134.253 265.479 134.459 266.951 134.619 268.389 135.007 269.742 135.608 271.269 136.248 272.65 137.189 273.807 138.373 274.979 139.566 275.892 140.989 276.488 142.553 277.102 144.164 277.413 145.876 277.403 147.6 277.403 151.242 276.377 154.151 274.323 156.327 272.268 158.504 269.154 160.047 264.979 160.957 266.892 162.019 268.595 163.418 270.009 165.088 271.601 166.899 273.032 168.843 274.29 170.9 275.4 172.681 276.38 174.541 277.221 176.464 277.755 177.536 278.109 178.69 278.27 179.878 278.257 180.563 278.043 181.229 277.653 181.793 277.236 182.433 276.655 182.95 275.972 183.292 275.206 183.671 274.36 183.859 273.506 183.842 272.516 183.876 271.538 183.602 270.709 183.059 269.941 182.525 269.28 181.853 268.76 181.077 268.215 180.277 267.477 179.1 266.545 177.546L262.581 170.951C261.483 168.994 260.206 167.142 258.767 165.421 257.843 164.303 256.675 163.415 255.352 162.823 253.955 162.316 252.474 162.079 250.988 162.124ZM256.651 141.604 247.524 141.604 247.524 155.028 256.384 155.028C258.401 155.067 260.414 154.861 262.381 154.412 263.806 154.114 265.103 153.381 266.094 152.314 267.006 151.156 267.462 149.704 267.377 148.233 267.445 145.644 265.888 143.289 263.48 142.337 262.324 141.849 260.048 141.605 256.651 141.604Z" fill="#FFFFFF" transform="matrix(1 0 0 1.00264 505.008 64.4198)"/><path d="M136.883 198.179 136.883 233.721 156.936 233.721C158.266 233.632 159.581 234.049 160.617 234.887 161.455 235.628 161.925 236.7 161.9 237.819 161.937 238.931 161.472 240.001 160.634 240.734 159.58 241.545 158.264 241.943 156.936 241.849L133.052 241.849C130.898 241.849 129.349 241.371 128.405 240.416 127.462 239.461 126.99 237.918 126.99 235.786L126.99 198.179C126.867 196.565 127.348 194.962 128.339 193.682 129.241 192.681 130.54 192.132 131.886 192.183 133.249 192.131 134.566 192.672 135.5 193.665 136.422 194.654 136.882 196.158 136.883 198.179Z" fill="#FFFFFF" transform="matrix(1 0 0 1.00264 505.008 64.4198)"/><path d="M168.794 236.652 168.794 198.179C168.671 196.562 169.158 194.957 170.16 193.682 171.059 192.687 172.351 192.139 173.691 192.183 175.053 192.131 176.372 192.672 177.305 193.665 178.226 194.654 178.687 196.159 178.688 198.179L178.688 236.652C178.814 238.283 178.32 239.9 177.305 241.183 176.377 242.185 175.057 242.732 173.691 242.682 172.353 242.718 171.068 242.164 170.177 241.166 169.166 239.889 168.673 238.277 168.794 236.652Z" fill="#FFFFFF" transform="matrix(1 0 0 1.00264 505.008 64.4198)"/><path d="M218.926 200.643 199.44 200.643 199.44 213.135 215.728 213.135C216.943 213.041 218.149 213.403 219.11 214.151 219.863 214.848 220.27 215.841 220.226 216.866 220.272 217.889 219.856 218.88 219.093 219.564 218.131 220.297 216.935 220.652 215.729 220.564L199.44 220.564 199.44 236.652C199.44 238.696 198.98 240.212 198.058 241.199 196.111 243.163 192.941 243.178 190.977 241.232 190.961 241.215 190.945 241.199 190.929 241.183 189.914 239.901 189.419 238.283 189.546 236.652L189.546 199.079C189.503 197.885 189.719 196.698 190.18 195.598 190.577 194.722 191.283 194.023 192.162 193.632 193.254 193.184 194.429 192.975 195.61 193.015L218.926 193.015C220.188 192.915 221.441 193.289 222.441 194.065 223.209 194.768 223.629 195.772 223.59 196.813 223.633 197.864 223.213 198.881 222.441 199.594 221.441 200.37 220.188 200.744 218.926 200.643Z" fill="#FFFFFF" transform="matrix(1 0 0 1.00264 505.008 64.4198)"/><path d="M263.129 200.643 240.845 200.643 240.845 212.635 261.364 212.635C262.578 212.541 263.784 212.903 264.745 213.651 265.493 214.338 265.901 215.318 265.862 216.333 265.898 217.353 265.498 218.34 264.762 219.048 263.806 219.822 262.59 220.198 261.364 220.097L240.845 220.097 240.845 233.987 263.896 233.987C265.161 233.894 266.417 234.28 267.41 235.07 268.207 235.811 268.639 236.864 268.593 237.951 268.63 239.017 268.198 240.046 267.41 240.766 266.417 241.556 265.161 241.943 263.896 241.848L237.014 241.848C234.86 241.848 233.31 241.371 232.367 240.415 231.423 239.461 230.951 237.918 230.952 235.785L230.952 199.079C230.908 197.885 231.124 196.698 231.584 195.598 231.983 194.722 232.688 194.023 233.567 193.632 234.659 193.184 235.835 192.975 237.015 193.015L263.13 193.015C264.391 192.915 265.644 193.289 266.644 194.065 267.412 194.768 267.832 195.772 267.793 196.813 267.836 197.864 267.417 198.881 266.644 199.594 265.644 200.37 264.391 200.744 263.129 200.643Z" fill="#FFFFFF" transform="matrix(1 0 0 1.00264 505.008 64.4198)"/></g></svg>